<svg width="320" height="19" xmlns="http://www.w3.org/2000/svg" xmlns:xlink="http://www.w3.org/1999/xlink" xml:space="preserve" overflow="hidden"><g transform="translate(-95 -339)"><path d="M4.99625 17.287 4.99625 2.37822 0 2.37822 0 1.09918 11.4514 1.09918 11.4514 2.37822 6.45516 2.37822 6.45516 17.287 5.01624 17.287 5.01624 17.287Z" fill="#D40511" transform="matrix(1 0 0 1.03325 95 339.001)"/><path d="M18.646 17.6468C16.7075 17.6468 15.2286 16.9673 14.1694 15.6083 13.1102 14.2493 12.5906 12.3707 12.5906 10.0125L12.5906 8.3937C12.5906 6.01549 13.1102 4.15688 14.1694 2.7979 15.2286 1.43892 16.7075 0.75943 18.646 0.75943 20.5846 0.75943 22.0635 1.43892 23.1227 2.7979 24.1819 4.15688 24.7015 6.03547 24.7015 8.3937L24.7015 10.0125C24.7015 12.3907 24.1819 14.2493 23.1227 15.6083 22.0635 16.9673 20.5846 17.6468 18.646 17.6468ZM18.646 16.3477C20.1049 16.3477 21.2241 15.8081 22.0435 14.709 22.8629 13.6098 23.2626 12.011 23.2626 9.91257L23.2626 8.49363C23.2626 6.3952 22.8629 4.77642 22.0435 3.69723 21.2241 2.59805 20.1049 2.05846 18.646 2.05846 17.1871 2.05846 16.0679 2.59805 15.2486 3.69723 14.4292 4.7964 14.0295 6.3952 14.0295 8.49363L14.0295 9.91257C14.0295 12.011 14.4292 13.6298 15.2486 14.709 16.0679 15.7882 17.1871 16.3477 18.646 16.3477Z" fill="#D40511" transform="matrix(1 0 0 1.03325 95 339.001)"/><path d="M33.4349 17.6468C31.5164 17.6468 30.0175 16.9673 28.9583 15.5883 27.8991 14.2093 27.3595 12.3507 27.3595 9.99251L27.3595 8.37372C27.3595 6.7949 27.5993 5.43592 28.0989 4.29678 28.5986 3.15763 29.318 2.27829 30.2373 1.65876 31.1566 1.03922 32.2558 0.71946 33.5349 0.71946 34.8139 0.71946 35.5134 0.919311 36.3128 1.31901 37.1122 1.71871 37.8316 2.27829 38.4512 2.97777L37.5518 3.87709C36.9723 3.25756 36.3727 2.7979 35.7332 2.47814 35.0937 2.15838 34.3542 2.01849 33.5548 2.01849 32.0959 2.01849 30.9568 2.57807 30.0974 3.67724 29.2581 4.77642 28.8184 6.37522 28.8184 8.47365L28.8184 9.89258C28.8184 11.971 29.2181 13.5698 30.0375 14.669 30.8569 15.7682 31.996 16.3278 33.4549 16.3278 34.9138 16.3278 35.7532 15.9281 36.5326 15.1486 37.312 14.3692 37.6917 13.1501 37.6917 11.5114L37.6917 9.8726 33.8146 9.8726 33.8146 8.63352 39.1107 8.63352 39.1107 11.4914C39.1107 13.4299 38.5911 14.9488 37.5518 16.008 36.5126 17.0872 35.1536 17.6068 33.4549 17.6068L33.4549 17.6068Z" fill="#D40511" transform="matrix(1 0 0 1.03325 95 339.001)"/><path d="M42.3682 17.287 42.3682 1.09918 51.2216 1.09918 51.2216 2.37822 43.8271 2.37822 43.8271 8.41369 50.5621 8.41369 50.5621 9.65276 43.8271 9.65276 43.8271 16.008 51.4414 16.008 51.4414 17.287 42.3682 17.287 42.3682 17.287Z" fill="#D40511" transform="matrix(1 0 0 1.03325 95 339.001)"/><path d="M58.0565 17.287 58.0565 2.37822 53.0602 2.37822 53.0602 1.09918 64.5116 1.09918 64.5116 2.37822 59.5154 2.37822 59.5154 17.287 58.0764 17.287 58.0764 17.287Z" fill="#D40511" transform="matrix(1 0 0 1.03325 95 339.001)"/><path d="M66.9498 17.287 66.9498 1.09918 68.3887 1.09918 68.3887 8.47365 76.7424 8.47365 76.7424 1.09918 78.1814 1.09918 78.1814 17.267 76.7424 17.267 76.7424 9.7327 68.3887 9.7327 68.3887 17.267 66.9498 17.267Z" fill="#D40511" transform="matrix(1 0 0 1.03325 95 339.001)"/><path d="M82.2183 17.287 82.2183 1.09918 91.0717 1.09918 91.0717 2.37822 83.6772 2.37822 83.6772 8.41369 90.4122 8.41369 90.4122 9.65276 83.6772 9.65276 83.6772 16.008 91.2915 16.008 91.2915 17.287 82.2183 17.287Z" fill="#D40511" transform="matrix(1 0 0 1.03325 95 339.001)"/><path d="M94.4891 17.287 94.4891 1.09918 99.7052 1.09918C100.605 1.09918 101.404 1.27904 102.123 1.61879 102.843 1.97852 103.382 2.47814 103.782 3.11766 104.182 3.77717 104.382 4.55658 104.382 5.45591L104.382 5.95553C104.382 7.11466 104.082 8.03397 103.462 8.73345 102.843 9.43293 102.123 9.89258 101.284 10.1324L104.981 17.267 103.263 17.267 99.7852 10.3522 95.9081 10.3522 95.9081 17.267 94.4691 17.267 94.4691 17.267ZM99.7252 2.35823 95.9281 2.35823 95.9281 9.11316 99.7252 9.11316C100.744 9.11316 101.524 8.83337 102.083 8.2738 102.643 7.71421 102.923 6.9348 102.923 5.93555L102.923 5.53585C102.923 4.51661 102.643 3.7372 102.083 3.17762 101.524 2.61804 100.724 2.33825 99.7252 2.33825L99.7252 2.33825Z" fill="#D40511" transform="matrix(1 0 0 1.03325 95 339.001)"/><path d="M117.692 17.6468C115.933 17.6468 114.574 17.0872 113.615 15.948 112.656 14.8089 112.176 13.0302 112.176 10.5921L112.176 1.09918 113.615 1.09918 113.615 10.5521C113.615 11.991 113.775 13.1302 114.094 13.9895 114.414 14.8489 114.874 15.4484 115.473 15.8081 116.073 16.1679 116.812 16.3477 117.712 16.3477 118.611 16.3477 119.33 16.1679 119.95 15.8081 120.55 15.4484 121.009 14.8489 121.329 13.9895 121.649 13.1501 121.809 11.991 121.809 10.5521L121.809 1.09918 123.228 1.09918 123.228 10.5921C123.228 13.0302 122.748 14.8089 121.789 15.948 120.829 17.0872 119.45 17.6468 117.692 17.6468Z" fill="#D40511" transform="matrix(1 0 0 1.03325 95 339.001)"/><path d="M127.005 17.287 127.005 1.09918 129.363 1.09918 136.697 15.8681 136.937 15.8681 136.937 1.09918 138.336 1.09918 138.336 17.267 135.978 17.267 128.644 2.49813 128.404 2.49813 128.404 17.267 127.005 17.267Z" fill="#D40511" transform="matrix(1 0 0 1.03325 95 339.001)"/><path d="M146.03 17.6468C145.151 17.6468 144.332 17.5069 143.552 17.2471 142.793 16.9873 141.993 16.5276 141.174 15.9081L141.894 14.8289C142.593 15.3485 143.293 15.7282 143.952 15.988 144.612 16.2278 145.331 16.3477 146.09 16.3477 147.31 16.3477 148.249 16.0679 148.928 15.4884 149.608 14.9088 149.928 14.1094 149.928 13.0902 149.928 12.0709 149.708 11.6513 149.288 11.1117 148.868 10.5721 148.149 10.1924 147.17 9.91257L145.311 9.39295C144.192 9.09318 143.333 8.57357 142.733 7.85411 142.133 7.13465 141.814 6.23532 141.814 5.13615 141.814 4.03697 142.273 2.65801 143.193 1.89858 144.112 1.13915 145.331 0.739445 146.81 0.739445 148.289 0.739445 148.409 0.879341 149.168 1.13915 149.928 1.39895 150.667 1.81864 151.426 2.41819L150.667 3.47739C150.007 2.99775 149.328 2.63802 148.688 2.3982 148.029 2.17837 147.389 2.05846 146.77 2.05846 145.771 2.05846 144.951 2.31826 144.292 2.83787 143.632 3.35748 143.313 4.11691 143.313 5.09618 143.313 6.07544 143.512 6.45516 143.932 6.97477 144.352 7.49438 145.031 7.89408 145.951 8.15388L147.809 8.6735C148.968 8.99325 149.868 9.53285 150.487 10.2523 151.127 10.9718 151.426 11.9111 151.426 13.0502 151.426 14.1894 150.967 15.5483 150.027 16.3877 149.088 17.2271 147.769 17.6468 146.07 17.6468L146.07 17.6468Z" fill="#D40511" transform="matrix(1 0 0 1.03325 95 339.001)"/><path d="M157.462 17.287 157.462 2.37822 152.466 2.37822 152.466 1.09918 163.917 1.09918 163.917 2.37822 158.921 2.37822 158.921 17.287 157.482 17.287 157.482 17.287Z" fill="#D40511" transform="matrix(1 0 0 1.03325 95 339.001)"/><path d="M171.112 17.6468C169.173 17.6468 167.694 16.9673 166.635 15.6083 165.576 14.2493 165.056 12.3707 165.056 10.0125L165.056 8.3937C165.056 6.01549 165.576 4.15688 166.635 2.7979 167.694 1.43892 169.173 0.75943 171.112 0.75943 173.05 0.75943 174.529 1.43892 175.588 2.7979 176.648 4.15688 177.167 6.03547 177.167 8.3937L177.167 10.0125C177.167 12.3907 176.648 14.2493 175.588 15.6083 174.529 16.9673 173.05 17.6468 171.112 17.6468ZM171.112 16.3477C172.571 16.3477 173.69 15.8081 174.509 14.709 175.309 13.6098 175.728 12.011 175.728 9.91257L175.728 8.49363C175.728 6.3952 175.329 4.77642 174.509 3.69723 173.71 2.59805 172.571 2.05846 171.112 2.05846 169.653 2.05846 168.534 2.59805 167.714 3.69723 166.915 4.7964 166.495 6.3952 166.495 8.49363L166.495 9.91257C166.495 12.011 166.895 13.6298 167.714 14.709 168.534 15.7882 169.653 16.3477 171.112 16.3477Z" fill="#D40511" transform="matrix(1 0 0 1.03325 95 339.001)"/><path d="M180.505 17.287 180.505 1.09918 185.661 1.09918C187.08 1.09918 188.239 1.49888 189.098 2.31826 189.978 3.13765 190.417 4.23682 190.417 5.5958L190.417 6.09543C190.417 7.47439 189.978 8.55359 189.098 9.37297 188.219 10.1924 187.08 10.5921 185.661 10.5921L181.964 10.5921 181.964 17.267 180.525 17.267ZM185.661 2.35823 181.964 2.35823 181.964 9.37297 185.661 9.37297C186.7 9.37297 187.519 9.09318 188.099 8.51361 188.678 7.93405 188.958 7.11466 188.958 6.05546L188.958 5.65576C188.958 4.59655 188.659 3.77717 188.099 3.1976 187.519 2.61804 186.7 2.33825 185.661 2.33825L185.661 2.33825Z" fill="#D40511" transform="matrix(1 0 0 1.03325 95 339.001)"/><path d="M193.255 17.287 193.255 1.09918 198.411 1.09918C199.83 1.09918 200.989 1.49888 201.849 2.31826 202.728 3.13765 203.168 4.23682 203.168 5.5958L203.168 6.09543C203.168 7.47439 202.728 8.55359 201.849 9.37297 200.969 10.1924 199.83 10.5921 198.411 10.5921L194.714 10.5921 194.714 17.267 193.275 17.267ZM198.391 2.35823 194.694 2.35823 194.694 9.37297 198.391 9.37297C199.43 9.37297 200.25 9.09318 200.829 8.51361 201.409 7.93405 201.689 7.11466 201.689 6.05546L201.689 5.65576C201.689 4.59655 201.389 3.77717 200.829 3.1976 200.25 2.61804 199.43 2.33825 198.391 2.33825L198.391 2.33825Z" fill="#D40511" transform="matrix(1 0 0 1.03325 95 339.001)"/><path d="M202.988 17.287 208.064 1.11916 210.342 1.11916 215.418 17.287 213.9 17.287 212.481 12.6905 205.866 12.6905 204.447 17.287 202.988 17.287ZM209.003 2.37822 206.205 11.4514 212.061 11.4514 209.263 2.37822 208.983 2.37822Z" fill="#D40511" transform="matrix(1 0 0 1.03325 95 339.001)"/><path d="M217.637 17.287 217.637 1.09918 223.053 1.09918C223.852 1.09918 224.572 1.25906 225.231 1.55883 225.891 1.85861 226.41 2.31826 226.79 2.89783 227.17 3.47739 227.369 4.21684 227.369 5.07619L227.369 5.57582C227.369 6.3952 227.17 7.09468 226.79 7.65426 226.41 8.21384 225.871 8.65351 225.191 8.89333 225.991 9.13315 226.63 9.55284 227.11 10.1724 227.589 10.7919 227.829 11.6113 227.829 12.5906L227.829 13.0702C227.829 13.9296 227.629 14.689 227.23 15.3085 226.83 15.9281 226.29 16.4077 225.611 16.7474 224.931 17.0672 224.172 17.2271 223.313 17.2271L217.617 17.2271ZM222.993 2.35823 219.076 2.35823 219.076 8.3937 222.993 8.3937C223.932 8.3937 224.652 8.15388 225.151 7.67424 225.671 7.1946 225.931 6.49513 225.931 5.57582L225.931 5.21609C225.931 4.31676 225.671 3.61729 225.151 3.11766 224.632 2.61804 223.912 2.37822 222.993 2.37822L222.993 2.37822ZM219.076 16.028 223.313 16.028C224.152 16.028 224.891 15.8081 225.471 15.3485 226.05 14.8888 226.37 14.1094 226.37 13.0102L226.37 12.6505C226.37 11.5913 226.07 10.8119 225.471 10.3522 224.871 9.89258 224.152 9.63278 223.313 9.63278L219.076 9.63278 219.076 16.028Z" fill="#D40511" transform="matrix(1 0 0 1.03325 95 339.001)"/><path d="M231.207 17.287 231.207 1.09918 232.646 1.09918 232.646 16.008 239.96 16.008 239.96 17.287C239.96 17.287 231.207 17.287 231.207 17.287Z" fill="#D40511" transform="matrix(1 0 0 1.03325 95 339.001)"/><path d="M242.658 17.287 242.658 1.09918 251.511 1.09918 251.511 2.37822 244.117 2.37822 244.117 8.41369 250.852 8.41369 250.852 9.65276 244.117 9.65276 244.117 16.008 251.731 16.008 251.731 17.287 242.658 17.287Z" fill="#D40511" transform="matrix(1 0 0 1.03325 95 339.001)"/><path d="M261.204 17.387 261.204 14.0495 266.22 8.57357C266.64 8.11391 266.96 7.69423 267.18 7.31451 267.379 6.9348 267.479 6.5351 267.479 6.11541 267.479 5.69573 267.32 5.09618 267.02 4.7964 266.72 4.49663 266.3 4.33675 265.761 4.33675 265.221 4.33675 264.701 4.47664 264.302 4.77642 263.882 5.07619 263.502 5.47589 263.143 5.97552L260.605 3.53735C261.244 2.71796 262.004 2.01849 262.863 1.47889 263.722 0.939295 264.841 0.659505 266.24 0.659505 267.639 0.659505 269.258 1.09918 270.297 1.97852 271.336 2.85786 271.856 4.11691 271.856 5.7357 271.856 7.35448 271.736 7.13465 271.476 7.7342 271.237 8.33375 270.877 8.9333 270.417 9.51287 269.958 10.0924 269.438 10.712 268.818 11.3915L266.68 13.7297 272.076 13.7297 272.076 17.4069 261.184 17.4069Z" fill="#D40511" transform="matrix(1 0 0 1.03325 95 339.001)"/><path d="M295.998 17.7467C295.019 17.7467 294.059 17.6268 293.12 17.387 292.181 17.1471 291.361 16.7674 290.682 16.2278L292.421 13.0302C292.8 13.27 293.3 13.5099 293.94 13.7097 294.579 13.9096 295.259 14.0095 295.958 14.0095 296.658 14.0095 297.197 13.8696 297.617 13.6098 298.036 13.35 298.236 12.8903 298.236 12.2508 298.236 11.6113 298.036 11.1916 297.637 10.9318 297.237 10.672 296.638 10.5321 295.858 10.5321L293.84 10.5321 293.84 7.75418 297.177 4.57657 291.701 4.57657 291.701 1.01924 301.854 1.01924 301.854 4.35673 298.136 7.67424C298.976 7.67424 299.735 7.87409 300.415 8.25381 301.094 8.61354 301.614 9.13315 301.993 9.83263 302.373 10.5121 302.573 11.3515 302.573 12.3507 302.573 13.35 302.293 14.5091 301.734 15.3085 301.174 16.1079 300.395 16.7275 299.395 17.1272 298.396 17.5468 297.257 17.7467 295.978 17.7467L295.978 17.7467 295.978 17.7467Z" fill="#D40511" transform="matrix(1 0 0 1.03325 95 339.001)"/><path d="M310.247 17.7467C308.129 17.7467 306.59 17.0472 305.631 15.6483 304.672 14.2493 304.192 12.3308 304.192 9.8726L304.192 8.49363C304.192 6.05546 304.672 4.11691 305.631 2.71796 306.59 1.31901 308.129 0.619535 310.247 0.619535 312.366 0.619535 313.905 1.31901 314.844 2.71796 315.803 4.11691 316.263 6.03547 316.263 8.49363L316.263 9.8726C316.263 12.3108 315.783 14.2493 314.844 15.6483 313.885 17.0472 312.366 17.7467 310.247 17.7467ZM310.247 14.1694C310.867 14.1694 311.307 13.8296 311.566 13.1302 311.806 12.4507 311.946 11.2915 311.946 9.69273L311.946 8.59355C311.946 6.97477 311.826 5.83562 311.566 5.17612 311.327 4.51661 310.887 4.17687 310.247 4.17687 309.608 4.17687 309.168 4.51661 308.928 5.17612 308.688 5.83562 308.549 6.97477 308.549 8.59355L308.549 9.69273C308.549 11.2915 308.668 12.4507 308.928 13.1302 309.188 13.8096 309.628 14.1694 310.247 14.1694L310.247 14.1694Z" fill="#D40511" transform="matrix(1 0 0 1.03325 95 339.001)"/><path d="M283.407 9.1931C283.407 8.69348 283.228 8.21384 282.848 7.83412L276.852 1.83862C276.093 1.07919 274.874 1.07919 274.114 1.83862L274.114 1.83862C273.355 2.59805 273.355 3.81714 274.114 4.57657L278.751 9.21309 274.114 13.8496C273.355 14.609 273.355 15.8281 274.114 16.5876 274.874 17.347 276.093 17.347 276.852 16.5876L282.848 10.5921C282.988 10.4522 283.108 10.2923 283.188 10.1324 283.327 9.85261 283.407 9.55284 283.407 9.25306L283.407 9.25306C283.407 9.25306 283.407 9.25306 283.407 9.25306L283.407 9.25306C283.407 9.25306 283.407 9.25306 283.407 9.25306Z" fill="#D40511" transform="matrix(1 0 0 1.03325 95 339.001)"/><path d="M287.185 17.1272C286.585 17.1272 286.025 16.8873 285.606 16.4676L279.89 10.7519C279.73 10.5921 279.59 10.4122 279.49 10.2123 279.49 10.2123 279.49 10.2123 279.49 10.1924 279.43 10.0924 279.39 9.99251 279.35 9.8726 279.35 9.81264 279.311 9.75269 279.311 9.71272 279.271 9.53285 279.251 9.35299 279.251 9.1931 279.251 9.03323 279.251 9.01324 279.251 8.91331 279.291 8.65351 279.37 8.3937 279.49 8.15388 279.49 8.15388 279.49 8.11391 279.51 8.11391 279.61 7.93405 279.73 7.75418 279.89 7.61429L285.606 1.89858C286.465 1.03922 287.884 1.03922 288.743 1.89858 289.603 2.75793 289.603 4.17687 288.743 5.03622L284.607 9.17312 288.743 13.31 288.743 13.31C289.603 14.1694 289.603 15.5883 288.743 16.4477 288.324 16.8673 287.764 17.1072 287.165 17.1072L287.165 17.1072C287.165 17.1072 287.165 17.1072 287.165 17.1072L287.165 17.1072ZM280.19 9.8726C280.25 9.99251 280.35 10.1124 280.45 10.2123L286.165 15.9281C286.725 16.4876 287.644 16.4876 288.204 15.9281 288.763 15.3685 288.763 14.4492 288.204 13.8896L283.787 9.4729C283.707 9.39295 283.667 9.29303 283.667 9.1931 283.667 9.09318 283.707 8.99325 283.787 8.91331L288.204 4.49663C288.484 4.21684 288.624 3.85711 288.624 3.47739 288.624 3.09768 288.464 2.71796 288.204 2.45816 287.924 2.17837 287.564 2.03847 287.185 2.03847 286.805 2.03847 286.425 2.19835 286.165 2.45816L280.45 8.17387C280.35 8.2738 280.27 8.37372 280.21 8.49363 280.21 8.49363 280.21 8.51361 280.21 8.5336 280.13 8.6735 280.09 8.83337 280.07 9.01324 280.07 9.09318 280.07 9.13315 280.07 9.1931 280.07 9.29303 280.07 9.41294 280.11 9.53285 280.11 9.57282 280.11 9.61279 280.15 9.63278 280.17 9.71272 280.21 9.77267 280.23 9.85261 280.23 9.85261 280.23 9.85261 280.23 9.85261L280.23 9.85261C280.23 9.85261 280.23 9.85261 280.23 9.85261Z" fill="#D40511" transform="matrix(1 0 0 1.03325 95 339.001)"/></g></svg>