<svg width="320" height="43" xmlns="http://www.w3.org/2000/svg" xmlns:xlink="http://www.w3.org/1999/xlink" xml:space="preserve" overflow="hidden"><g transform="translate(-94 -150)"><path d="M1.00467 8.6 10.3079 8.6 9.80561 9.28318 1.00467 9.28318 1.00467 8.6Z" fill="#CA0511" transform="matrix(1.00098 0 0 1 94 150)"/><path d="M1.00467 7.31402 11.2724 7.31402 10.75 7.9972 1.00467 7.9972 1.00467 7.31402Z" fill="#CA0511" transform="matrix(1.00098 0 0 1 94 150)"/><path d="M1.00467 9.86589 9.36355 9.86589 8.86121 10.5692 1.00467 10.5692 1.00467 9.86589Z" fill="#CA0511" transform="matrix(1.00098 0 0 1 94 150)"/><path d="M69.8248 9.28318 60.5617 9.28318 61.064 8.6 69.8248 8.6 69.8248 9.28318Z" fill="#CA0511" transform="matrix(1.00098 0 0 1 94 150)"/><path d="M69.8248 10.5692 59.6173 10.5692 60.1196 9.86589 69.8248 9.86589 69.8248 10.5692Z" fill="#CA0511" transform="matrix(1.00098 0 0 1 94 150)"/><path d="M62.0084 7.31402 69.8248 7.31402 69.8248 7.9972 61.5061 7.9972 62.0084 7.31402Z" fill="#CA0511" transform="matrix(1.00098 0 0 1 94 150)"/><path d="M10.0266 10.5692 14.4472 4.56121 19.9327 4.56121C20.5355 4.56121 20.5355 4.78224 20.2341 5.18411 19.9327 5.58598 19.4304 6.28925 19.1089 6.71122 18.9481 6.93224 18.6668 7.29392 19.6112 7.29392L26.9453 7.29392C26.3425 8.13785 24.3533 10.5491 20.7967 10.5491 20.7967 10.5491 10.0266 10.5491 10.0266 10.5491Z" fill="#CA0511" transform="matrix(1.00098 0 0 1 94 150)"/><path d="M35.3243 7.31402 32.9332 10.5692 26.6238 10.5692 29.015 7.31402 35.3243 7.31402Z" fill="#CA0511" transform="matrix(1.00098 0 0 1 94 150)"/><path d="M44.4467 7.31402 42.0556 10.5692 35.7463 10.5692 38.1374 7.31402 44.4467 7.31402Z" fill="#CA0511" transform="matrix(1.00098 0 0 1 94 150)"/><path d="M46.4963 7.31402C46.4963 7.31402 46.0341 7.93692 45.8131 8.25841 45.0294 9.32336 45.7126 10.5893 48.3047 10.5893L58.4519 10.5893 60.843 7.33411 46.4963 7.33411Z" fill="#CA0511" transform="matrix(1.00098 0 0 1 94 150)"/><path d="M13.121 0.823832 10.9107 3.81776 22.8864 3.81776C23.4893 3.81776 23.4893 4.03878 23.1879 4.44065 22.8864 4.84252 22.3841 5.56589 22.0827 5.96776 21.922 6.16869 21.6407 6.55047 22.585 6.55047L27.4879 6.55047C27.4879 6.55047 28.2715 5.48551 28.9346 4.58131 29.8388 3.35561 29.015 0.823832 25.8 0.823832 25.8 0.823832 13.121 0.823832 13.121 0.823832Z" fill="#CA0511" transform="matrix(1.00098 0 0 1 94 150)"/><path d="M44.9893 6.57056 29.5374 6.57056 33.757 0.823832 40.0864 0.823832 37.6551 4.11916 40.4883 4.11916 42.8995 0.823832 49.2089 0.823832 44.9893 6.57056Z" fill="#CA0511" transform="matrix(1.00098 0 0 1 94 150)"/><path d="M57.9696 0.823832 53.75 6.57056 47.0589 6.57056 51.2785 0.823832C51.2785 0.823832 57.9696 0.823832 57.9696 0.823832Z" fill="#CA0511" transform="matrix(1.00098 0 0 1 94 150)"/><path d="M6.02804 42.136 6.02804 27.1463 1.00467 27.1463 1.00467 25.8603 12.5182 25.8603 12.5182 27.1463 7.49486 27.1463 7.49486 42.136 6.02804 42.136Z" fill="#D40511" transform="matrix(1.00098 0 0 1 94 150)"/><path d="M19.7519 42.4977C17.8028 42.4977 16.3159 41.8145 15.2509 40.4481 14.186 39.0818 13.6636 37.193 13.6636 34.822L13.6636 33.1944C13.6636 30.8033 14.186 28.9346 15.2509 27.5682 16.3159 26.2019 17.8028 25.5187 19.7519 25.5187 21.7009 25.5187 23.1879 26.2019 24.2528 27.5682 25.3178 28.9346 25.8402 30.8234 25.8402 33.1944L25.8402 34.822C25.8402 37.2131 25.3178 39.0818 24.2528 40.4481 23.1879 41.8145 21.7009 42.4977 19.7519 42.4977ZM19.7519 41.1916C21.2187 41.1916 22.3439 40.6491 23.1678 39.5439 23.9916 38.4388 24.3935 36.8313 24.3935 34.7215L24.3935 33.2949C24.3935 31.185 23.9916 29.5575 23.1678 28.4724 22.3439 27.3673 21.2187 26.8248 19.7519 26.8248 18.285 26.8248 17.1598 27.3673 16.336 28.4724 15.5121 29.5776 15.1103 31.185 15.1103 33.2949L15.1103 34.7215C15.1103 36.8313 15.5121 38.4589 16.336 39.5439 17.1598 40.629 18.285 41.1916 19.7519 41.1916Z" fill="#D40511" transform="matrix(1.00098 0 0 1 94 150)"/><path d="M34.621 42.4977C32.6921 42.4977 31.185 41.8145 30.1201 40.428 29.0551 39.0416 28.5126 37.1729 28.5126 34.8019L28.5126 33.1743C28.5126 31.5869 28.7537 30.2206 29.2561 29.0752 29.7584 27.9299 30.4818 27.0458 31.4061 26.4229 32.3304 25.8 33.4355 25.4785 34.7215 25.4785 36.0075 25.4785 36.7107 25.6794 37.5145 26.0813 38.3182 26.4832 39.0416 27.0458 39.6645 27.7491L38.7603 28.6533C38.1776 28.0304 37.5748 27.5682 36.9318 27.2467 36.2888 26.9252 35.5453 26.7846 34.7416 26.7846 33.2748 26.7846 32.1294 27.3472 31.2654 28.4523 30.4215 29.5575 29.9794 31.165 29.9794 33.2748L29.9794 34.7014C29.9794 36.7911 30.3813 38.3986 31.2051 39.5037 32.029 40.6089 33.1743 41.1715 34.6411 41.1715 36.1079 41.1715 36.9519 40.7696 37.7355 39.986 38.5192 39.2023 38.9009 37.9766 38.9009 36.329L38.9009 34.6813 35.0028 34.6813 35.0028 33.4355 40.3276 33.4355 40.3276 36.3089C40.3276 38.2579 39.8051 39.785 38.7603 40.85 37.7154 41.935 36.3491 42.4575 34.6411 42.4575L34.6411 42.4575 34.6411 42.4977Z" fill="#D40511" transform="matrix(1.00098 0 0 1 94 150)"/><path d="M43.6028 42.136 43.6028 25.8603 52.5042 25.8603 52.5042 27.1463 45.0696 27.1463 45.0696 33.2145 51.8411 33.2145 51.8411 34.4603 45.0696 34.4603 45.0696 40.85 52.7252 40.85 52.7252 42.136 43.6028 42.136Z" fill="#D40511" transform="matrix(1.00098 0 0 1 94 150)"/><path d="M59.3762 42.136 59.3762 27.1463 54.3528 27.1463 54.3528 25.8603 65.8663 25.8603 65.8663 27.1463 60.843 27.1463 60.843 42.136 59.3762 42.136Z" fill="#D40511" transform="matrix(1.00098 0 0 1 94 150)"/><path d="M68.3178 42.136 68.3178 25.8603 69.7645 25.8603 69.7645 33.2748 78.1636 33.2748 78.1636 25.8603 79.6103 25.8603 79.6103 42.1159 78.1636 42.1159 78.1636 34.5407 69.7645 34.5407 69.7645 42.1159 68.3178 42.1159Z" fill="#D40511" transform="matrix(1.00098 0 0 1 94 150)"/><path d="M83.6692 42.136 83.6692 25.8603 92.5706 25.8603 92.5706 27.1463 85.136 27.1463 85.136 33.2145 91.9075 33.2145 91.9075 34.4603 85.136 34.4603 85.136 40.85 92.7916 40.85 92.7916 42.136 83.6692 42.136Z" fill="#D40511" transform="matrix(1.00098 0 0 1 94 150)"/><path d="M96.0065 42.136 96.0065 25.8603 101.251 25.8603C102.155 25.8603 102.959 26.0411 103.682 26.3827 104.406 26.7444 104.948 27.2467 105.35 27.8897 105.752 28.5528 105.953 29.3364 105.953 30.2407L105.953 30.743C105.953 31.9084 105.651 32.8327 105.029 33.536 104.406 34.2393 103.682 34.7014 102.838 34.9425L106.556 42.1159 104.828 42.1159 101.331 35.1636 97.4332 35.1636 97.4332 42.1159 95.9865 42.1159 95.9865 42.1159ZM101.271 27.1262 97.4533 27.1262 97.4533 33.9178 101.271 33.9178C102.296 33.9178 103.079 33.6364 103.642 33.0738 104.205 32.5112 104.486 31.7276 104.486 30.7229L104.486 30.321C104.486 29.2963 104.205 28.5126 103.642 27.95 103.079 27.3874 102.276 27.1061 101.271 27.1061L101.271 27.1061Z" fill="#D40511" transform="matrix(1.00098 0 0 1 94 150)"/><path d="M119.335 42.4977C117.567 42.4977 116.2 41.935 115.236 40.7897 114.271 39.6444 113.789 37.8561 113.789 35.4047L113.789 25.8603 115.236 25.8603 115.236 35.3645C115.236 36.8112 115.397 37.9565 115.718 38.8206 116.04 39.6846 116.502 40.2874 117.105 40.6491 117.707 41.0107 118.451 41.1916 119.355 41.1916 120.259 41.1916 120.983 41.0107 121.606 40.6491 122.208 40.2874 122.671 39.6846 122.992 38.8206 123.314 37.9766 123.474 36.8112 123.474 35.3645L123.474 25.8603 124.901 25.8603 124.901 35.4047C124.901 37.8561 124.419 39.6444 123.454 40.7897 122.49 41.935 121.103 42.4977 119.335 42.4977L119.335 42.4977Z" fill="#D40511" transform="matrix(1.00098 0 0 1 94 150)"/><path d="M128.699 42.136 128.699 25.8603 131.07 25.8603 138.444 40.7093 138.685 40.7093 138.685 25.8603 140.092 25.8603 140.092 42.1159 137.721 42.1159 130.346 27.2668 130.105 27.2668 130.105 42.1159 128.699 42.1159Z" fill="#D40511" transform="matrix(1.00098 0 0 1 94 150)"/><path d="M147.828 42.4977C146.943 42.4977 146.12 42.357 145.336 42.0958 144.572 41.8346 143.769 41.3724 142.945 40.7495L143.668 39.6645C144.371 40.1869 145.075 40.5687 145.738 40.8299 146.401 41.071 147.124 41.1916 147.888 41.1916 149.114 41.1916 150.058 40.9103 150.741 40.3276 151.424 39.7449 151.746 38.9411 151.746 37.9164 151.746 36.8916 151.525 36.4696 151.103 35.9271 150.681 35.3846 149.957 35.0028 148.973 34.7215L147.104 34.1991C145.979 33.8977 145.115 33.3752 144.512 32.6519 143.909 31.9285 143.588 31.0243 143.588 29.9192 143.588 28.814 144.05 27.4276 144.974 26.664 145.899 25.9005 147.124 25.4986 148.611 25.4986 150.098 25.4986 150.219 25.6393 150.982 25.9005 151.746 26.1617 152.489 26.5836 153.253 27.1864L152.489 28.2514C151.826 27.7692 151.143 27.4075 150.5 27.1664 149.837 26.9453 149.194 26.8248 148.571 26.8248 147.566 26.8248 146.743 27.086 146.079 27.6084 145.416 28.1308 145.095 28.8944 145.095 29.879 145.095 30.8636 145.296 31.2453 145.718 31.7678 146.14 32.2902 146.823 32.6921 147.747 32.9533L149.616 33.4757C150.781 33.7972 151.686 34.3397 152.308 35.0631 152.951 35.7864 153.253 36.7308 153.253 37.8762 153.253 39.0215 152.791 40.3878 151.846 41.2318 150.902 42.0757 149.576 42.4977 147.868 42.4977L147.828 42.4977Z" fill="#D40511" transform="matrix(1.00098 0 0 1 94 150)"/><path d="M159.321 42.136 159.321 27.1463 154.298 27.1463 154.298 25.8603 165.811 25.8603 165.811 27.1463 160.788 27.1463 160.788 42.136 159.321 42.136Z" fill="#D40511" transform="matrix(1.00098 0 0 1 94 150)"/><path d="M173.045 42.4977C171.096 42.4977 169.609 41.8145 168.544 40.4481 167.479 39.0818 166.957 37.193 166.957 34.822L166.957 33.1944C166.957 30.8033 167.479 28.9346 168.544 27.5682 169.609 26.2019 171.096 25.5187 173.045 25.5187 174.994 25.5187 176.481 26.2019 177.546 27.5682 178.611 28.9346 179.133 30.8234 179.133 33.1944L179.133 34.822C179.133 37.2131 178.611 39.0818 177.546 40.4481 176.481 41.8145 174.994 42.4977 173.045 42.4977ZM173.045 41.1916C174.512 41.1916 175.637 40.6491 176.461 39.5439 177.264 38.4388 177.686 36.8313 177.686 34.7215L177.686 33.2949C177.686 31.185 177.285 29.5575 176.461 28.4724 175.657 27.3673 174.512 26.8248 173.045 26.8248 171.578 26.8248 170.453 27.3673 169.629 28.4724 168.825 29.5776 168.403 31.185 168.403 33.2949L168.403 34.7215C168.403 36.8313 168.805 38.4589 169.629 39.5439 170.453 40.629 171.578 41.1916 173.045 41.1916Z" fill="#D40511" transform="matrix(1.00098 0 0 1 94 150)"/><path d="M182.489 42.136 182.489 25.8603 187.673 25.8603C189.1 25.8603 190.265 26.2621 191.129 27.086 192.013 27.9098 192.455 29.015 192.455 30.3813L192.455 30.8836C192.455 32.2701 192.013 33.3551 191.129 34.179 190.245 35.0028 189.1 35.4047 187.673 35.4047L183.956 35.4047 183.956 42.1159 182.489 42.1159ZM187.673 27.1262 183.956 27.1262 183.956 34.179 187.673 34.179C188.718 34.179 189.542 33.8977 190.124 33.315 190.707 32.7322 190.988 31.9084 190.988 30.8435L190.988 30.4416C190.988 29.3766 190.687 28.5528 190.124 27.9701 189.542 27.3874 188.718 27.1061 187.673 27.1061L187.673 27.1061Z" fill="#D40511" transform="matrix(1.00098 0 0 1 94 150)"/><path d="M195.308 42.136 195.308 25.8603 200.493 25.8603C201.919 25.8603 203.085 26.2621 203.949 27.086 204.833 27.9098 205.275 29.015 205.275 30.3813L205.275 30.8836C205.275 32.2701 204.833 33.3551 203.949 34.179 203.064 35.0028 201.919 35.4047 200.493 35.4047L196.775 35.4047 196.775 42.1159 195.308 42.1159ZM200.472 27.1262 196.755 27.1262 196.755 34.179 200.472 34.179C201.517 34.179 202.341 33.8977 202.924 33.315 203.507 32.7322 203.788 31.9084 203.788 30.8435L203.788 30.4416C203.788 29.3766 203.486 28.5528 202.924 27.9701 202.341 27.3874 201.517 27.1061 200.472 27.1061L200.472 27.1061Z" fill="#D40511" transform="matrix(1.00098 0 0 1 94 150)"/><path d="M205.094 42.136 210.198 25.8804 212.488 25.8804 217.592 42.136 216.065 42.136 214.638 37.5145 207.987 37.5145 206.561 42.136 205.094 42.136ZM211.142 27.1463 208.329 36.2687 214.216 36.2687 211.403 27.1463 211.122 27.1463 211.122 27.1463Z" fill="#D40511" transform="matrix(1.00098 0 0 1 94 150)"/><path d="M219.822 42.136 219.822 25.8603 225.268 25.8603C226.071 25.8603 226.795 26.021 227.458 26.3224 228.121 26.6238 228.643 27.086 229.025 27.6687 229.407 28.2514 229.608 28.9949 229.608 29.8589L229.608 30.3612C229.608 31.185 229.407 31.8883 229.025 32.4509 228.643 33.0135 228.101 33.4556 227.418 33.6967 228.221 33.9378 228.864 34.3598 229.347 34.9827 229.829 35.6056 230.07 36.4294 230.07 37.414L230.07 37.8963C230.07 38.7603 229.869 39.5238 229.467 40.1467 229.065 40.7696 228.523 41.2519 227.84 41.5935 227.157 41.915 226.393 42.0757 225.529 42.0757L219.802 42.0757 219.802 42.136ZM225.207 27.1262 221.269 27.1262 221.269 33.1944 225.207 33.1944C226.152 33.1944 226.875 32.9533 227.378 32.471 227.9 31.9888 228.161 31.2855 228.161 30.3612L228.161 29.9995C228.161 29.0953 227.9 28.3921 227.378 27.8897 226.855 27.3874 226.132 27.1463 225.207 27.1463L225.207 27.1463ZM221.269 40.8701 225.529 40.8701C226.373 40.8701 227.116 40.6491 227.699 40.1869 228.282 39.7248 228.603 38.9411 228.603 37.836L228.603 37.4743C228.603 36.4093 228.302 35.6257 227.699 35.1636 227.096 34.7014 226.373 34.4402 225.529 34.4402L221.269 34.4402 221.269 40.8701Z" fill="#D40511" transform="matrix(1.00098 0 0 1 94 150)"/><path d="M233.466 42.136 233.466 25.8603 234.913 25.8603 234.913 40.85 242.267 40.85 242.267 42.136 233.466 42.136 233.466 42.136Z" fill="#D40511" transform="matrix(1.00098 0 0 1 94 150)"/><path d="M244.979 42.136 244.979 25.8603 253.881 25.8603 253.881 27.1463 246.446 27.1463 246.446 33.2145 253.218 33.2145 253.218 34.4603 246.446 34.4603 246.446 40.85 254.102 40.85 254.102 42.136 244.979 42.136Z" fill="#D40511" transform="matrix(1.00098 0 0 1 94 150)"/><path d="M263.626 42.2364 263.626 38.8808 268.67 33.3752C269.092 32.9131 269.413 32.4911 269.634 32.1093 269.835 31.7276 269.936 31.3257 269.936 30.9037 269.936 30.4818 269.775 29.879 269.473 29.5776 269.172 29.2762 268.75 29.1154 268.207 29.1154 267.665 29.1154 267.143 29.2561 266.741 29.5575 266.319 29.8589 265.937 30.2607 265.575 30.7631L263.023 28.3117C263.666 27.4879 264.43 26.7846 265.294 26.2421 266.158 25.6995 267.283 25.4182 268.69 25.4182 270.096 25.4182 271.724 25.8603 272.769 26.7444 273.814 27.6285 274.336 28.8944 274.336 30.522 274.336 32.1495 274.215 31.9285 273.954 32.5313 273.713 33.1341 273.351 33.7369 272.889 34.3196 272.427 34.9023 271.905 35.5252 271.282 36.2084L269.132 38.5593 274.557 38.5593 274.557 42.2565 263.606 42.2565 263.606 42.2565Z" fill="#D40511" transform="matrix(1.00098 0 0 1 94 150)"/><path d="M298.609 42.5981C297.624 42.5981 296.66 42.4776 295.715 42.2364 294.771 41.9953 293.947 41.6136 293.264 41.071L295.012 37.8561C295.394 38.0972 295.896 38.3383 296.539 38.5393 297.182 38.7402 297.865 38.8407 298.569 38.8407 299.272 38.8407 299.814 38.7 300.236 38.4388 300.658 38.1776 300.859 37.7154 300.859 37.0724 300.859 36.4294 300.658 36.0075 300.257 35.7463 299.855 35.485 299.252 35.3444 298.468 35.3444L296.439 35.3444 296.439 32.5514 299.794 29.3565 294.289 29.3565 294.289 25.7799 304.496 25.7799 304.496 29.1355 300.759 32.471C301.603 32.471 302.366 32.672 303.049 33.0537 303.733 33.4154 304.255 33.9378 304.637 34.6411 305.019 35.3243 305.22 36.1682 305.22 37.1729 305.22 38.1776 304.938 39.343 304.376 40.1467 303.813 40.9505 303.029 41.5734 302.025 41.9752 301.02 42.3972 299.875 42.5981 298.589 42.5981L298.589 42.5981Z" fill="#D40511" transform="matrix(1.00098 0 0 1 94 150)"/><path d="M312.936 42.5981C310.806 42.5981 309.258 41.8949 308.294 40.4883 307.329 39.0818 306.847 37.1528 306.847 34.6813L306.847 33.2949C306.847 30.8435 307.329 28.8944 308.294 27.4879 309.258 26.0813 310.806 25.378 312.936 25.378 315.065 25.378 316.613 26.0813 317.557 27.4879 318.521 28.8944 318.984 30.8234 318.984 33.2949L318.984 34.6813C318.984 37.1327 318.501 39.0818 317.557 40.4883 316.592 41.8949 315.065 42.5981 312.936 42.5981ZM312.936 39.0014C313.558 39.0014 314 38.6598 314.262 37.9565 314.503 37.2734 314.643 36.1079 314.643 34.5005L314.643 33.3953C314.643 31.7678 314.523 30.6224 314.262 29.9593 314.021 29.2963 313.578 28.9547 312.936 28.9547 312.293 28.9547 311.85 29.2963 311.609 29.9593 311.368 30.6224 311.228 31.7678 311.228 33.3953L311.228 34.5005C311.228 36.1079 311.348 37.2734 311.609 37.9565 311.871 38.6397 312.313 39.0014 312.936 39.0014L312.936 39.0014Z" fill="#D40511" transform="matrix(1.00098 0 0 1 94 150)"/><path d="M285.95 33.9981C285.95 33.4958 285.769 33.0135 285.387 32.6318L279.359 26.6037C278.596 25.8402 277.37 25.8402 276.607 26.6037L276.607 26.6037C275.843 27.3673 275.843 28.593 276.607 29.3565L281.268 34.0182 276.607 38.6799C275.843 39.4435 275.843 40.6692 276.607 41.4327 277.37 42.1963 278.596 42.1963 279.359 41.4327L285.387 35.4047C285.528 35.264 285.649 35.1033 285.729 34.9425 285.87 34.6612 285.95 34.3598 285.95 34.0584L285.95 34.0584 285.95 33.9981Z" fill="#D40511" transform="matrix(1.00098 0 0 1 94 150)"/><path d="M289.748 41.9752C289.145 41.9752 288.582 41.7341 288.16 41.3121L282.414 35.5654C282.253 35.4047 282.112 35.2238 282.012 35.0229L282.012 35.0229C281.951 34.9023 281.911 34.8019 281.871 34.6813 281.871 34.621 281.831 34.5607 281.831 34.5206 281.791 34.3397 281.771 34.1589 281.771 33.9981L281.771 33.7168C281.811 33.4556 281.891 33.1944 282.012 32.9533 282.012 32.9533 282.012 32.9131 282.012 32.9131 282.112 32.7322 282.233 32.5514 282.393 32.4107L288.14 26.664C289.004 25.8 290.431 25.8 291.295 26.664 292.159 27.528 292.159 28.9547 291.295 29.8187L287.135 33.978 291.295 38.1374 291.295 38.1374C292.159 39.0014 292.159 40.428 291.295 41.2921 290.873 41.714 290.31 41.9551 289.707 41.9551L289.728 41.9551ZM282.715 34.6813C282.775 34.8019 282.876 34.9224 282.976 35.0229L288.723 40.7696C289.285 41.3322 290.21 41.3322 290.772 40.7696 291.335 40.207 291.335 39.2827 290.772 38.7201L286.332 34.2794C286.251 34.1991 286.211 34.0986 286.211 33.9981 286.211 33.8977 286.251 33.7972 286.332 33.7168L290.772 29.2762C291.054 28.9949 291.194 28.6332 291.194 28.2514 291.194 27.8696 291.034 27.4879 290.772 27.2266 290.491 26.9453 290.129 26.8047 289.748 26.8047 289.366 26.8047 288.984 26.9654 288.723 27.2266L282.976 32.9734C282.876 33.0738 282.795 33.1743 282.735 33.2949L282.735 33.335C282.655 33.4757 282.614 33.6364 282.594 33.8173L282.594 33.9981C282.594 34.0986 282.594 34.2192 282.635 34.3397 282.635 34.3799 282.635 34.4201 282.675 34.4402 282.675 34.5206 282.735 34.5808 282.755 34.6612L282.715 34.6612Z" fill="#D40511" transform="matrix(1.00098 0 0 1 94 150)"/></g></svg>