<svg width="105" height="106" xmlns="http://www.w3.org/2000/svg" xmlns:xlink="http://www.w3.org/1999/xlink" xml:space="preserve" overflow="hidden"><defs><clipPath id="clip0"><rect x="355" y="282" width="105" height="106"/></clipPath></defs><g clip-path="url(#clip0)" transform="translate(-355 -282)"><path d="M52.5 105C23.5509 105 0 81.4491 0 52.5 0 23.5509 23.5509 0 52.5 0 81.4491 0 105 23.5509 105 52.5 105 81.4491 81.4491 105 52.5 105ZM52.5 18.5294C33.7668 18.5294 18.5294 33.7668 18.5294 52.5 18.5294 71.2332 33.7668 86.4706 52.5 86.4706 71.2332 86.4706 86.4706 71.2332 86.4706 52.5 86.4706 33.7668 71.2332 18.5294 52.5 18.5294Z" fill="#A3D0B9" transform="matrix(1 0 0 1.00952 355 282)"/><path d="M11.5624 52.0553 5.05853 51.5797 5.23147 49.1771C5.29941 48.2135 5.61441 47.4847 6.17029 47.0029 6.72618 46.515 7.47971 46.3112 8.44324 46.3791L8.97441 46.4162C9.93176 46.4841 10.6544 46.7991 11.13 47.3612 11.6056 47.9232 11.8094 48.6829 11.7415 49.6526L11.5685 52.0553ZM6.50382 49.2697 6.43588 50.1838 10.395 50.4741 10.4629 49.56C10.5371 48.5409 9.98118 47.9912 8.80147 47.9047L8.38765 47.8738C7.20176 47.7874 6.57794 48.2568 6.50382 49.2697Z" transform="matrix(1 0 0 1.00952 355 282)"/><path d="M12.7421 43.5626C12.5815 44.3038 12.2418 44.8474 11.7291 45.1994 11.2165 45.5515 10.5803 45.6441 9.82676 45.4774L9.44382 45.3909C8.70265 45.2303 8.16529 44.8968 7.83176 44.3965 7.49824 43.8962 7.39941 43.3032 7.54765 42.6238 7.69588 41.9382 8.02324 41.4503 8.52971 41.1662 9.03618 40.8821 9.66618 40.8203 10.4197 40.9871L11.0188 41.1168 10.3641 44.1371C11.0682 44.2112 11.4944 43.9024 11.6488 43.2106 11.6982 42.9821 11.7106 42.7721 11.6859 42.5682 11.6612 42.3644 11.6118 42.1544 11.5315 41.9444L12.5321 41.5676C12.6679 41.8518 12.7544 42.1668 12.7976 42.5003 12.8409 42.8338 12.8224 43.1921 12.7421 43.5626ZM8.65941 42.9018C8.59765 43.1797 8.64088 43.4021 8.78912 43.575 8.93735 43.7479 9.17206 43.8776 9.48706 43.9703L9.85765 42.2718C9.53029 42.2224 9.26471 42.2471 9.06088 42.3397 8.85706 42.4385 8.72118 42.6238 8.65941 42.9018Z" transform="matrix(1 0 0 1.00952 355 282)"/><path d="M13.8971 39.3688C13.7179 39.9309 13.4647 40.2768 13.1435 40.4003 12.8224 40.5238 12.4209 40.5053 11.9391 40.3509L6.74471 38.6832 7.18324 37.3182 12.3097 38.9674C12.4703 39.0168 12.6 39.0229 12.6865 38.9674 12.7729 38.9179 12.8409 38.8191 12.8841 38.6832 12.9026 38.6276 12.915 38.5659 12.9212 38.4979L14.0206 38.85C13.9897 39.0044 13.9465 39.1774 13.8847 39.3688Z" transform="matrix(1 0 0 1.00952 355 282)"/><path d="M9.345 35.3479C9.25853 35.5703 9.11647 35.7309 8.93118 35.8297 8.73971 35.9347 8.53588 35.9409 8.31353 35.8482 8.09118 35.7556 7.94912 35.6135 7.88118 35.4097 7.81323 35.2059 7.82559 34.9959 7.91206 34.7735 7.99853 34.5512 8.14059 34.3906 8.32588 34.2918 8.51735 34.1929 8.72118 34.1806 8.94353 34.2732 9.16588 34.3597 9.30794 34.5079 9.37588 34.7118 9.44382 34.9156 9.43147 35.1256 9.345 35.3479ZM14.2553 38.0779 9.57353 36.2126 10.1047 34.8785 14.7865 36.7438 14.2553 38.0779Z" transform="matrix(1 0 0 1.00952 355 282)"/><path d="M15.9229 34.2671C15.6635 34.7674 15.2682 35.07 14.7432 35.1626 14.2182 35.2553 13.6315 35.1379 12.9829 34.7982L12.6124 34.6068C11.9638 34.2671 11.5253 33.8594 11.3029 33.3776 11.0806 32.8959 11.0991 32.4018 11.3585 31.8953 11.5129 31.605 11.7168 31.3765 11.97 31.2221 12.2232 31.0676 12.5074 30.9874 12.8162 30.9935L12.1244 30.6353 12.7482 29.4309 16.8371 31.5494C18.2762 32.2968 18.5912 33.4518 17.7759 35.0206 17.4424 35.6568 17.0038 36.1076 16.4603 36.3732L15.8303 35.3788C16.2132 35.1565 16.5097 34.8476 16.7074 34.4524 17.0903 33.7174 16.9235 33.1615 16.2132 32.7909L15.855 32.6056C16.0156 32.8526 16.1021 33.1182 16.1144 33.4085 16.1268 33.6988 16.065 33.9768 15.9229 34.2547ZM13.6129 33.5135C14.3294 33.8841 14.8297 33.7915 15.1138 33.2356 15.2806 32.9144 15.2929 32.5994 15.1509 32.2844L13.4338 31.395C13.0941 31.4629 12.8409 31.6544 12.6803 31.9694 12.5382 32.2474 12.5197 32.5006 12.6309 32.7353 12.7421 32.97 12.9706 33.18 13.3165 33.3591L13.6129 33.5135Z" transform="matrix(1 0 0 1.00952 355 282)"/><path d="M17.7882 30.8329 12.1306 26.8553 12.9521 25.6818 15.1447 27.2197C15.0088 26.9294 14.9471 26.6391 14.9532 26.3488 14.9594 26.0585 15.0644 25.7682 15.2621 25.4903 15.5524 25.0826 15.9106 24.8665 16.3491 24.8479 16.7876 24.8294 17.2694 25.0024 17.7944 25.3729L20.3576 27.1765 19.5362 28.35 17.0471 26.6021C16.8247 26.4476 16.6147 26.3735 16.4171 26.3735 16.2194 26.3735 16.0403 26.4847 15.8982 26.6947 15.7871 26.8553 15.7253 27.0221 15.7191 27.1888 15.7129 27.3556 15.7376 27.5224 15.7994 27.6768L18.6221 29.6594 17.8006 30.8329Z" transform="matrix(1 0 0 1.00952 355 282)"/><path d="M22.4329 24.9715C21.9882 25.4779 21.5621 25.7374 21.1482 25.7435 20.7344 25.7559 20.2712 25.5335 19.7647 25.0888L18.375 23.8721 17.8932 24.4218 17.0162 23.6559 17.5103 23.0938 16.6703 22.3588 17.3497 21.105 18.4306 22.05 19.1409 21.2409 20.0179 22.0068 19.32 22.8035 20.6665 23.9832C20.9074 24.1932 21.1112 24.2921 21.2718 24.2735 21.4324 24.255 21.5929 24.1562 21.7474 23.9771 21.7844 23.94 21.8153 23.8968 21.8524 23.8474 21.8894 23.7979 21.9203 23.7547 21.9512 23.7115L22.8221 24.4712C22.7726 24.5453 22.7171 24.6256 22.6491 24.7121 22.5812 24.7985 22.5071 24.8912 22.4268 24.9838Z" transform="matrix(1 0 0 1.00952 355 282)"/><path d="M25.1012 22.3526C24.5453 22.8653 23.9524 23.1185 23.3347 23.1062 22.7109 23.1 22.1426 22.8097 21.6176 22.2415L21.3521 21.9512C20.8394 21.3953 20.5862 20.8147 20.6047 20.2094 20.6171 19.6041 20.8826 19.0668 21.3953 18.5974 21.9141 18.1218 22.4638 17.9118 23.0382 17.9674 23.6188 18.0291 24.1685 18.3379 24.6874 18.9062L25.1012 19.3571 22.8282 21.4509C23.3656 21.9141 23.8906 21.9079 24.4094 21.4324 24.5762 21.2779 24.7121 21.105 24.8109 20.9259 24.9097 20.7468 24.9838 20.5429 25.0394 20.3206L26.0771 20.5862C26.0215 20.895 25.9165 21.2038 25.7621 21.5003 25.6076 21.7968 25.3853 22.0809 25.1074 22.3403ZM22.1426 19.4621C21.9326 19.6535 21.84 19.8635 21.8585 20.0921 21.8771 20.3206 21.9944 20.5615 22.2044 20.8147L23.4829 19.635C23.2482 19.4065 23.0135 19.2706 22.7912 19.2335 22.5688 19.1965 22.3526 19.2706 22.1426 19.4621Z" transform="matrix(1 0 0 1.00952 355 282)"/><path d="M28.5662 19.4991C28.1091 19.8203 27.6212 19.9006 27.1085 19.7338 26.5959 19.5671 26.1265 19.1779 25.6941 18.5603L25.4656 18.2391C25.0332 17.6215 24.8232 17.0471 24.8418 16.5097 24.8603 15.9724 25.095 15.54 25.5521 15.2188 26.0832 14.8421 26.6453 14.8235 27.2321 15.1509L25.6879 12.9521 26.8615 12.1306 30.8391 17.7882 29.7335 18.5665 29.2332 17.8562C29.295 18.1835 29.2703 18.4924 29.1529 18.7826 29.0356 19.0729 28.8441 19.3138 28.5662 19.5053ZM26.8491 17.7141C27.0838 18.0415 27.3247 18.2515 27.5718 18.3318 27.825 18.4182 28.0721 18.375 28.3129 18.2021 28.6094 17.9921 28.7576 17.7018 28.7576 17.3188L27.6582 15.7562C27.3062 15.6326 26.985 15.6759 26.6824 15.8859 26.4415 16.0588 26.3179 16.275 26.3118 16.5406 26.3118 16.8062 26.4168 17.1026 26.6515 17.43L26.8429 17.7018Z" transform="matrix(1 0 0 1.00952 355 282)"/><path d="M36.0335 15.2621C35.4838 15.5153 34.9526 15.6141 34.4524 15.5647 33.9459 15.5153 33.4888 15.33 33.075 15.0026 32.6612 14.6753 32.3215 14.2244 32.0621 13.6376L31.8274 13.1188C31.5618 12.5382 31.4444 11.9824 31.4691 11.4574 31.4938 10.9324 31.6544 10.4629 31.9447 10.0491 32.2412 9.63529 32.6612 9.30794 33.2109 9.05471 34.0447 8.67794 34.8724 8.66559 35.6938 9.02382L35.2924 10.2406C34.7488 10.0059 34.2547 9.99353 33.81 10.1974 33.3715 10.395 33.0997 10.6976 33.0009 11.1053 32.8959 11.5068 32.9762 11.9885 33.2294 12.5506L33.4147 12.9644C33.6679 13.5141 33.9768 13.8909 34.3474 14.0824 34.7179 14.2738 35.1194 14.2738 35.5579 14.0762 35.7865 13.9712 35.9841 13.8291 36.1571 13.6376 36.33 13.4524 36.4659 13.2053 36.5709 12.9088L37.7506 13.4029C37.6209 13.8229 37.4109 14.1874 37.1206 14.5024 36.8303 14.8174 36.4659 15.0706 36.0335 15.2682Z" transform="matrix(1 0 0 1.00952 355 282)"/><path d="M40.1841 13.6315C39.7085 13.7735 39.2947 13.7118 38.9488 13.4524 38.5968 13.1929 38.3312 12.7544 38.1459 12.1429L37.2565 9.14118 38.6276 8.73353 39.4924 11.6488C39.5665 11.9082 39.6838 12.0935 39.8382 12.2171 39.9926 12.3344 40.1903 12.3591 40.4312 12.285 40.6103 12.2356 40.7524 12.1429 40.8574 12.0194 40.9624 11.8959 41.0426 11.7538 41.0797 11.5994L40.0976 8.295 41.4688 7.88735 42.9018 12.7174 41.6047 13.1003 41.3515 12.2603C41.2897 12.5815 41.16 12.8656 40.9685 13.1126 40.7771 13.3597 40.5115 13.5326 40.1718 13.6315Z" transform="matrix(1 0 0 1.00952 355 282)"/><path d="M45.5391 12.3591C45.1376 12.4271 44.7671 12.4332 44.4397 12.3838 44.1124 12.3344 43.7912 12.2171 43.4824 12.0318L43.8962 11.0312C44.3656 11.2721 44.8474 11.3524 45.3415 11.2721 45.8541 11.1856 46.0888 10.9879 46.0332 10.6853 45.9962 10.4691 45.7924 10.3518 45.4218 10.3394L44.8659 10.3147C44.4026 10.29 44.0259 10.1665 43.7479 9.94412 43.4638 9.72176 43.2909 9.41294 43.2291 9.01147 43.1488 8.51735 43.26 8.10353 43.5688 7.77 43.8776 7.43647 44.3409 7.21412 44.9647 7.10912 45.6997 6.98559 46.3668 7.07206 46.9597 7.36853L46.5768 8.36294C46.1753 8.16529 45.7491 8.09735 45.2921 8.17765 44.8226 8.25794 44.6126 8.43706 44.6621 8.72118 44.6991 8.95588 44.9029 9.07941 45.2735 9.09794L45.8418 9.12265C46.7991 9.17206 47.3426 9.58588 47.4724 10.3703 47.5588 10.8829 47.4291 11.3153 47.0894 11.6612 46.7497 12.0071 46.2309 12.2418 45.5391 12.3529Z" transform="matrix(1 0 0 1.00952 355 282)"/><path d="M50.6471 11.7785C49.9738 11.8218 49.4921 11.7044 49.1894 11.4203 48.8868 11.1362 48.72 10.6544 48.6706 9.98118L48.5471 8.14059 47.8182 8.19 47.7379 7.02882 48.4853 6.97941 48.4112 5.86765 49.7824 5.46 49.8812 6.89294 50.9559 6.81882 51.0362 7.98 49.98 8.04794 50.0974 9.83294C50.1221 10.1541 50.1962 10.3641 50.3259 10.4691 50.4556 10.5679 50.6409 10.6112 50.8756 10.5988 50.9312 10.5988 50.9806 10.5926 51.0424 10.5803 51.1041 10.5741 51.1597 10.5618 51.2091 10.5556L51.2832 11.7106C51.1968 11.7291 51.1041 11.7476 50.9929 11.76 50.8879 11.7724 50.7706 11.7847 50.6409 11.7909Z" transform="matrix(1 0 0 1.00952 355 282)"/><path d="M54.2974 11.8032C53.5438 11.7724 52.9632 11.5253 52.5556 11.0744 52.1418 10.6235 51.9503 10.0182 51.9874 9.25853L52.0059 8.86324C52.0368 8.10353 52.2776 7.51676 52.7285 7.10294 53.1794 6.68912 53.7785 6.49765 54.5259 6.52853 55.2794 6.55941 55.86 6.80029 56.2676 7.25735 56.6815 7.70823 56.8668 8.31353 56.8359 9.07323L56.8174 9.46853C56.7865 10.2282 56.5456 10.8088 56.0947 11.2288 55.6438 11.6426 55.0447 11.8341 54.2974 11.8032ZM54.3529 10.6112C54.6618 10.6235 54.9088 10.5309 55.0941 10.3271 55.2794 10.1232 55.3782 9.80824 55.3968 9.38206L55.4091 9.04853C55.4276 8.62235 55.3535 8.295 55.1868 8.07882 55.02 7.86265 54.7853 7.74529 54.4765 7.73294 54.1676 7.72059 53.9206 7.81323 53.7353 8.01706 53.55 8.22088 53.4512 8.53588 53.4326 8.96206L53.4203 9.29559C53.4018 9.72176 53.4759 10.0491 53.6426 10.2653 53.8094 10.4815 54.0441 10.5988 54.3529 10.6112Z" transform="matrix(1 0 0 1.00952 355 282)"/><path d="M57.54 11.7847 58.6024 6.85588 59.9241 7.14 59.7388 7.99853C59.9488 7.74529 60.1959 7.56 60.48 7.43647 60.7641 7.31294 61.0915 7.28824 61.4497 7.36853 62.1291 7.51676 62.5059 7.93676 62.58 8.63471 62.8024 8.38765 63.0618 8.19618 63.3582 8.07265 63.6547 7.94294 63.9882 7.91823 64.365 7.99853 64.8406 8.10353 65.1741 8.35059 65.3532 8.74588 65.5385 9.14118 65.5632 9.65382 65.4274 10.2776L64.7665 13.3412 63.3644 13.0385 64.0068 10.0615C64.0624 9.79588 64.0562 9.57353 63.9759 9.39441 63.9018 9.21529 63.7412 9.09794 63.4941 9.04235 63.3088 8.99912 63.1359 9.01147 62.9753 9.07941 62.8147 9.14118 62.6788 9.23382 62.5676 9.35118L61.845 12.7112 60.4429 12.4085 61.0853 9.43147C61.1409 9.16588 61.1285 8.94353 61.0482 8.76441 60.9679 8.57912 60.8074 8.46176 60.5665 8.41235 60.3874 8.37529 60.2206 8.38147 60.06 8.44324 59.8994 8.505 59.7697 8.59147 59.6585 8.70265L58.9297 12.0812 57.5276 11.7785Z" transform="matrix(1 0 0 1.00952 355 282)"/><path d="M67.7188 14.7062C67.0147 14.4282 66.5329 14.0082 66.2673 13.44 66.0079 12.8779 66.0141 12.2356 66.2982 11.5191L66.4465 11.1485C66.7244 10.4444 67.1382 9.96882 67.6879 9.71559 68.2376 9.46235 68.8368 9.46853 69.4853 9.72794 70.14 9.98735 70.5662 10.3888 70.7638 10.9385 70.9615 11.4821 70.9182 12.1182 70.6341 12.8347L70.4056 13.4029 67.5274 12.2603C67.3421 12.9459 67.5768 13.4153 68.2315 13.6747 68.4476 13.7612 68.6576 13.8044 68.8615 13.8168 69.0653 13.8291 69.2815 13.8106 69.5038 13.7612L69.7138 14.8112C69.4112 14.8976 69.09 14.9347 68.7503 14.9224 68.4106 14.91 68.0647 14.8359 67.7065 14.6938ZM69.0406 10.7841C68.775 10.6791 68.5465 10.6853 68.355 10.8026 68.1573 10.92 67.9906 11.13 67.8547 11.4265L69.4729 12.0688C69.5779 11.7538 69.5965 11.4882 69.5347 11.2721 69.4729 11.0559 69.3124 10.8891 69.0468 10.7841Z" transform="matrix(1 0 0 1.00952 355 282)"/><path d="M70.3871 15.7438 72.7403 11.2906 73.9385 11.9206 73.3518 13.0324C73.5185 12.8656 73.7038 12.7235 73.9076 12.6062 74.1115 12.4826 74.3276 12.4147 74.5562 12.39 74.7909 12.3653 75.0318 12.4209 75.2912 12.5568 75.3406 12.5815 75.39 12.6124 75.4332 12.6371 75.4765 12.6618 75.5259 12.6988 75.5815 12.7421L74.9638 13.9156C74.9206 13.8847 74.8712 13.8538 74.8156 13.8229 74.76 13.7921 74.7106 13.7612 74.655 13.7303 74.3338 13.5635 74.0374 13.4832 73.7718 13.4956 73.5062 13.5079 73.2838 13.5635 73.1109 13.65L71.6532 16.4109 70.3871 15.7438Z" transform="matrix(1 0 0 1.00952 355 282)"/><path d="M74.9329 18.4985C74.5932 18.27 74.3215 18.0291 74.1176 17.7635 73.9138 17.4979 73.7594 17.1953 73.6606 16.8494L74.6488 16.4047C74.8218 16.8988 75.1182 17.2879 75.5382 17.5659 75.9706 17.8562 76.2732 17.8685 76.4462 17.6153 76.5635 17.4362 76.4956 17.2076 76.2424 16.9421L75.8594 16.5406C75.5382 16.2071 75.3468 15.8612 75.2974 15.5029 75.2479 15.1447 75.3344 14.805 75.5568 14.4715 75.8347 14.0576 76.1991 13.8291 76.6562 13.7982 77.1071 13.7674 77.6012 13.9218 78.1262 14.2738 78.7438 14.6876 79.17 15.2065 79.4047 15.8303L78.4412 16.2935C78.2868 15.8735 78.015 15.5338 77.6321 15.2806 77.2368 15.015 76.9588 15.0026 76.7982 15.2435 76.6685 15.4412 76.7303 15.6759 76.9897 15.9415L77.385 16.3491C78.0521 17.0409 78.1571 17.7141 77.7185 18.375 77.4282 18.8074 77.0391 19.0359 76.5574 19.0544 76.0756 19.0729 75.5382 18.8876 74.9515 18.4985Z" transform="matrix(1 0 0 1.00952 355 282)"/><path d="M52.5 73.3085 35.8174 56.1565C33.5012 53.8526 32.2226 50.7582 32.2226 47.4785 32.2226 40.7153 37.7259 35.2059 44.4953 35.2059 47.4724 35.2059 50.2765 36.2621 52.5062 38.1891 54.7359 36.2559 57.5338 35.2059 60.5171 35.2059 67.2803 35.2059 72.7897 40.7091 72.7897 47.4785 72.7897 50.7644 71.505 53.8526 69.1765 56.175L52.5124 73.3147 52.5124 73.3147ZM44.4891 37.7197C39.1094 37.7197 34.7303 42.0988 34.7303 47.4785 34.7303 50.0912 35.7494 52.5494 37.6024 54.39L52.4938 69.7015 67.3729 54.4024C69.2382 52.5432 70.2635 50.085 70.2635 47.4724 70.2635 42.0926 65.8844 37.7135 60.5047 37.7135 57.7932 37.7135 55.2794 38.8068 53.4079 40.7894L52.4938 41.7591 51.5797 40.7894C49.7144 38.8068 47.1882 37.7135 44.4829 37.7135L44.4953 37.7135Z" fill="#D40511" transform="matrix(1 0 0 1.00952 355 282)"/><path d="M44.4891 40.4806C40.6288 40.4806 37.4912 43.6182 37.4912 47.4785 37.4912 49.35 38.2262 51.1103 39.5479 52.4321L39.5974 52.4815 52.4938 65.7485 65.4397 52.4382C66.7676 51.1103 67.4965 49.3562 67.4965 47.4847 67.4965 43.6244 64.3588 40.4868 60.4985 40.4868 58.5591 40.4868 56.7494 41.2712 55.4091 42.6979L52.4815 45.7985 49.5538 42.6979C48.2135 41.2712 46.4038 40.4868 44.4644 40.4868L44.4768 40.4868 44.4768 40.4868Z" fill="#D40511" transform="matrix(1 0 0 1.00952 355 282)"/></g></svg>