<svg width="188" height="83" xmlns="http://www.w3.org/2000/svg" xmlns:xlink="http://www.w3.org/1999/xlink" xml:space="preserve" overflow="hidden"><defs><clipPath id="clip0"><rect x="507" y="345" width="188" height="83"/></clipPath></defs><g clip-path="url(#clip0)" transform="translate(-507 -345)"><path d="M2.71987 12.2843 2.71987 3.67631-0.0298887 3.67631-0.0298887 1.13577 8.42862 1.13577 8.42862 3.64642 5.67886 3.64642 5.67886 12.2544 2.71987 12.2544Z" fill="#D40511" transform="matrix(1 0 0 1.00615 507 345)"/><path d="M13.8086 12.5533C12.2843 12.5533 11.1186 12.075 10.2817 11.1485 9.47472 10.2219 9.05628 8.90684 9.05628 7.20318L9.05628 6.24674C9.05628 4.54308 9.47472 3.22798 10.2817 2.30143 11.0887 1.37488 12.2843 0.896661 13.8086 0.896661 15.3329 0.896661 16.4986 1.37488 17.3355 2.30143 18.1424 3.22798 18.5609 4.54308 18.5609 6.24674L18.5609 7.20318C18.5609 8.90684 18.1424 10.2219 17.3355 11.1485 16.5285 12.075 15.3329 12.5533 13.8086 12.5533ZM13.8086 9.98283C14.4362 9.98283 14.9145 9.74372 15.1835 9.2655 15.4525 8.78728 15.6019 8.06995 15.6019 7.08363L15.6019 6.33641C15.6019 5.35008 15.4525 4.63275 15.1835 4.15453 14.9145 3.67631 14.4362 3.4372 13.8086 3.4372 13.1809 3.4372 12.7027 3.67631 12.4337 4.15453 12.1647 4.63275 12.0153 5.35008 12.0153 6.33641L12.0153 7.08363C12.0153 8.06995 12.1647 8.78728 12.4337 9.2655 12.7027 9.74372 13.1809 9.98283 13.8086 9.98283Z" fill="#D40511" transform="matrix(1 0 0 1.00615 507 345)"/><path d="M24.4789 12.5533C23.0143 12.5533 21.8785 12.075 21.1014 11.1485 20.3243 10.2219 19.9059 8.90684 19.9059 7.17329L19.9059 6.21685C19.9059 5.08108 20.1151 4.12464 20.5037 3.31765 20.8922 2.51065 21.4601 1.91288 22.1475 1.49444 22.8649 1.07599 23.6719 0.866773 24.6283 0.866773 26.2124 0.866773 27.4378 1.37488 28.2747 2.42099L26.5711 4.30397C26.3021 3.9752 26.0331 3.76598 25.7043 3.61653 25.4054 3.46709 25.0467 3.40731 24.6582 3.40731 24.0305 3.40731 23.5523 3.64642 23.2833 4.12464 22.9844 4.60286 22.835 5.32019 22.835 6.30652L22.835 7.05374C22.835 8.04006 22.9545 8.78728 23.2235 9.23561 23.4925 9.71383 23.8811 9.95294 24.449 9.95294 25.0169 9.95294 25.3456 9.77361 25.6146 9.41494 25.8537 9.05628 26.0032 8.60795 26.0331 8.01017L24.2995 8.01017 24.2995 5.61908 28.9024 5.61908 28.9024 7.62162C28.9024 9.14595 28.5138 10.3415 27.7068 11.1784 26.9297 12.0153 25.8238 12.4636 24.4191 12.4636L24.4789 12.5533Z" fill="#D40511" transform="matrix(1 0 0 1.00615 507 345)"/><path d="M30.606 12.2843 30.606 1.13577 37.6897 1.13577 37.6897 3.64642 33.5351 3.64642 33.5351 5.43975 37.2413 5.43975 37.2413 7.86073 33.5351 7.86073 33.5351 9.77361 37.869 9.77361 37.869 12.2843 30.606 12.2843Z" fill="#D40511" transform="matrix(1 0 0 1.00615 507 345)"/><path d="M41.6051 12.2843 41.6051 3.67631 38.8553 3.67631 38.8553 1.13577 47.3138 1.13577 47.3138 3.64642 44.5641 3.64642 44.5641 12.2544 41.6051 12.2544Z" fill="#D40511" transform="matrix(1 0 0 1.00615 507 345)"/><path d="M48.5692 12.2843 48.5692 1.13577 51.4983 1.13577 51.4983 5.37997 54.4871 5.37997 54.4871 1.13577 57.4162 1.13577 57.4162 12.2843 54.4871 12.2843 54.4871 7.92051 51.4983 7.92051 51.4983 12.2843 48.5692 12.2843Z" fill="#D40511" transform="matrix(1 0 0 1.00615 507 345)"/><path d="M59.5383 12.2843 59.5383 1.13577 66.6219 1.13577 66.6219 3.64642 62.4674 3.64642 62.4674 5.43975 66.1736 5.43975 66.1736 7.86073 62.4674 7.86073 62.4674 9.77361 66.8013 9.77361 66.8013 12.2843 59.5383 12.2843Z" fill="#D40511" transform="matrix(1 0 0 1.00615 507 345)"/><path d="M68.5946 12.2843 68.5946 1.13577 72.4204 1.13577C73.855 1.13577 74.9609 1.40477 75.7679 1.97266 76.5749 2.51065 76.9634 3.4372 76.9634 4.69253L76.9634 5.0213C76.9634 5.79841 76.814 6.42607 76.545 6.93418 76.2461 7.44229 75.8277 7.83084 75.2897 8.09984L77.4417 12.2843 74.0941 12.2843 72.4801 8.63784 71.5536 8.63784 71.5536 12.2843 68.5946 12.2843ZM72.4801 3.46709 71.4938 3.46709 71.4938 6.33641 72.4801 6.33641C72.9584 6.33641 73.317 6.24674 73.586 6.03752 73.855 5.85819 74.0045 5.49952 74.0045 5.0213L74.0045 4.78219C74.0045 4.27409 73.855 3.94531 73.586 3.76598 73.317 3.58665 72.9584 3.49698 72.4801 3.49698L72.4801 3.49698Z" fill="#D40511" transform="matrix(1 0 0 1.00615 507 345)"/><path d="M86.1094 12.5533C84.6448 12.5533 83.539 12.1348 82.7917 11.3278 82.0445 10.5208 81.6859 9.23561 81.6859 7.50207L81.6859 1.13577 84.6448 1.13577 84.6448 7.35262C84.6448 8.24928 84.7345 8.90684 84.9437 9.29539 85.1529 9.71383 85.5415 9.89316 86.1393 9.89316 86.7371 9.89316 87.1256 9.68394 87.3348 9.29539 87.544 8.87695 87.6337 8.24928 87.6337 7.35262L87.6337 1.13577 90.503 1.13577 90.503 7.47218C90.503 9.20572 90.1444 10.4909 89.3971 11.2979 88.6499 12.1049 87.5739 12.5234 86.1094 12.5234L86.1094 12.5234Z" fill="#D40511" transform="matrix(1 0 0 1.00615 507 345)"/><path d="M92.5355 12.2843 92.5355 1.13577 96.2715 1.13577 98.6626 8.30906 98.9615 8.30906 98.9615 1.13577 101.652 1.13577 101.652 12.2843 97.9154 12.2843 95.5243 5.11097 95.2254 5.11097 95.2254 12.2843 92.5355 12.2843Z" fill="#D40511" transform="matrix(1 0 0 1.00615 507 345)"/><path d="M106.972 12.5533C105.328 12.5533 104.013 12.075 102.997 11.1186L104.341 9.08617C105.089 9.71383 105.985 10.0127 107.002 10.0127 108.018 10.0127 108.376 9.71383 108.376 9.11606 108.376 8.51828 108.317 8.66773 108.167 8.54817 108.018 8.39873 107.809 8.27917 107.48 8.18951L106.224 7.77107C105.268 7.47218 104.581 7.05374 104.132 6.51574 103.684 5.97774 103.475 5.2903 103.475 4.48331 103.475 3.67631 103.833 2.48076 104.581 1.8531 105.328 1.22544 106.344 0.92655 107.659 0.92655 108.974 0.92655 108.974 1.01622 109.602 1.22544 110.23 1.43466 110.797 1.73355 111.276 2.1221L109.99 4.2442C109.692 3.9752 109.333 3.79587 108.914 3.67631 108.496 3.55676 108.107 3.49698 107.719 3.49698 107.33 3.49698 107.002 3.58665 106.792 3.73609 106.583 3.88553 106.464 4.09475 106.464 4.36375 106.464 4.63275 106.523 4.78219 106.673 4.90175 106.822 5.05119 107.031 5.17075 107.33 5.26041L108.616 5.67886C110.469 6.27663 111.395 7.38251 111.395 9.02639 111.395 10.6703 111.007 11.0588 110.23 11.6865 109.452 12.3141 108.376 12.6429 107.002 12.6429L107.002 12.5533Z" fill="#D40511" transform="matrix(1 0 0 1.00615 507 345)"/><path d="M114.713 12.2843 114.713 3.67631 111.963 3.67631 111.963 1.13577 120.422 1.13577 120.422 3.64642 117.672 3.64642 117.672 12.2544 114.713 12.2544 114.713 12.2544Z" fill="#D40511" transform="matrix(1 0 0 1.00615 507 345)"/><path d="M125.802 12.5533C124.277 12.5533 123.112 12.075 122.275 11.1485 121.468 10.2219 121.049 8.90684 121.049 7.20318L121.049 6.24674C121.049 4.54308 121.468 3.22798 122.275 2.30143 123.082 1.37488 124.277 0.896661 125.802 0.896661 127.326 0.896661 128.492 1.37488 129.328 2.30143 130.135 3.22798 130.554 4.54308 130.554 6.24674L130.554 7.20318C130.554 8.90684 130.135 10.2219 129.328 11.1485 128.521 12.075 127.326 12.5533 125.802 12.5533ZM125.802 9.98283C126.429 9.98283 126.907 9.74372 127.176 9.2655 127.445 8.78728 127.595 8.06995 127.595 7.08363L127.595 6.33641C127.595 5.35008 127.445 4.63275 127.176 4.15453 126.907 3.67631 126.429 3.4372 125.802 3.4372 125.174 3.4372 124.696 3.67631 124.427 4.15453 124.158 4.63275 124.008 5.35008 124.008 6.33641L124.008 7.08363C124.008 8.06995 124.158 8.78728 124.427 9.2655 124.696 9.74372 125.174 9.98283 125.802 9.98283Z" fill="#D40511" transform="matrix(1 0 0 1.00615 507 345)"/><path d="M132.287 12.2843 132.287 1.13577 136.113 1.13577C137.548 1.13577 138.654 1.43466 139.461 2.00254 140.268 2.57043 140.656 3.49698 140.656 4.78219L140.656 5.11097C140.656 6.39618 140.268 7.29285 139.461 7.89062 138.654 8.45851 137.548 8.75739 136.113 8.75739L135.217 8.75739 135.217 12.3141 132.287 12.3141ZM136.173 3.52687 135.217 3.52687 135.217 6.39618 136.173 6.39618C136.651 6.39618 137.01 6.30652 137.279 6.12719 137.548 5.94785 137.697 5.61908 137.697 5.11097L137.697 4.87186C137.697 4.36375 137.548 4.00509 137.279 3.82576 137.01 3.64642 136.651 3.55676 136.173 3.55676L136.173 3.55676Z" fill="#D40511" transform="matrix(1 0 0 1.00615 507 345)"/><path d="M142.031 12.2843 142.031 1.13577 145.857 1.13577C147.292 1.13577 148.397 1.43466 149.204 2.00254 150.011 2.57043 150.4 3.49698 150.4 4.78219L150.4 5.11097C150.4 6.39618 150.011 7.29285 149.204 7.89062 148.397 8.45851 147.292 8.75739 145.857 8.75739L144.96 8.75739 144.96 12.3141 142.031 12.3141ZM145.917 3.52687 144.96 3.52687 144.96 6.39618 145.917 6.39618C146.395 6.39618 146.754 6.30652 147.023 6.12719 147.292 5.94785 147.441 5.61908 147.441 5.11097L147.441 4.87186C147.441 4.36375 147.292 4.00509 147.023 3.82576 146.754 3.64642 146.395 3.55676 145.917 3.55676L145.917 3.55676Z" fill="#D40511" transform="matrix(1 0 0 1.00615 507 345)"/><path d="M150.251 12.2843 153.03 1.13577 157.394 1.13577 160.174 12.2843 157.065 12.2843 156.617 10.1024 153.628 10.1024 153.18 12.2843 150.251 12.2843ZM154.913 3.82576 154.076 7.77107 156.109 7.77107 155.302 3.82576 154.913 3.82576Z" fill="#D40511" transform="matrix(1 0 0 1.00615 507 345)"/><path d="M161.309 12.2843 161.309 1.13577 165.404 1.13577C166.719 1.13577 167.706 1.34499 168.393 1.79332 169.08 2.24165 169.439 2.95898 169.439 3.91542L169.439 4.21431C169.439 4.78219 169.29 5.26041 169.021 5.64897 168.722 6.03752 168.363 6.33641 167.855 6.54563 168.423 6.78474 168.841 7.08363 169.17 7.50207 169.469 7.92051 169.648 8.39873 169.648 8.96661L169.648 9.29539C169.648 10.0426 169.469 10.6404 169.08 11.0887 168.692 11.5072 168.184 11.8359 167.556 11.9854 166.928 12.1647 166.241 12.2544 165.524 12.2544L161.309 12.2544ZM165.374 3.19809 164.149 3.19809 164.149 5.67886 165.374 5.67886C165.643 5.67886 165.912 5.58919 166.181 5.40986 166.42 5.23053 166.54 4.93164 166.54 4.5132L166.54 4.33386C166.54 3.91542 166.42 3.61653 166.181 3.46709 165.942 3.28776 165.673 3.22798 165.374 3.22798L165.374 3.22798ZM164.179 10.2518 165.494 10.2518C165.882 10.2518 166.181 10.1622 166.39 9.98283 166.6 9.8035 166.719 9.50461 166.719 9.05628L166.719 8.87695C166.719 8.45851 166.6 8.12973 166.39 7.9504 166.181 7.77107 165.882 7.6814 165.494 7.6814L164.179 7.6814 164.179 10.2518Z" fill="#D40511" transform="matrix(1 0 0 1.00615 507 345)"/><path d="M171.322 12.2843 171.322 1.13577 174.251 1.13577 174.251 9.68394 178.137 9.68394 178.137 12.2843C178.137 12.2843 171.322 12.2843 171.322 12.2843Z" fill="#D40511" transform="matrix(1 0 0 1.00615 507 345)"/><path d="M179.542 12.2843 179.542 1.13577 186.625 1.13577 186.625 3.64642 182.471 3.64642 182.471 5.43975 186.177 5.43975 186.177 7.86073 182.471 7.86073 182.471 9.77361 186.804 9.77361 186.804 12.2843 179.542 12.2843Z" fill="#D40511" transform="matrix(1 0 0 1.00615 507 345)"/><path d="M2.24165 80.9088 2.24165 69.6407 19.1288 51.1695C20.5634 49.6153 21.6394 48.1806 22.3568 46.9253 23.0442 45.6401 23.4029 44.2951 23.4029 42.9202 23.4029 41.5453 22.8948 39.483 21.8486 38.4668 20.8025 37.4506 19.3978 36.9126 17.6343 36.9126 15.8709 36.9126 14.1075 37.4207 12.7027 38.407 11.2979 39.4232 10.0127 40.7383 8.78728 42.4121L0.23911 34.2226C2.42099 31.4429 4.93164 29.1116 7.83084 27.2884 10.73 25.4353 14.5259 24.5386 19.1886 24.5386 23.8512 24.5386 29.3507 26.0331 32.8477 28.9921 36.3148 31.9809 38.0782 36.1952 38.0782 41.635 38.0782 47.0747 37.6598 46.3275 36.8229 48.3599 35.986 50.3924 34.7905 52.3949 33.2661 54.3377 31.7418 56.2804 29.9485 58.4025 27.8862 60.6741L20.7129 68.5348 38.9151 68.5348 38.9151 80.9088 2.24165 80.9088Z" fill="#D40511" transform="matrix(1 0 0 1.00615 507 345)"/><path d="M119.435 82.1641C116.148 82.1641 112.92 81.7456 109.751 80.9685 106.583 80.1615 103.863 78.8763 101.562 77.083L107.42 66.2932C108.705 67.1301 110.409 67.8773 112.561 68.5647 114.713 69.2223 116.984 69.5809 119.376 69.5809 121.767 69.5809 123.59 69.1326 124.965 68.2359 126.34 67.3393 127.057 65.8149 127.057 63.6331 127.057 61.4512 126.399 60.0763 125.054 59.1797 123.709 58.283 121.707 57.8048 119.047 57.8048L112.292 57.8048 112.292 48.4496 123.56 37.7494 105.089 37.7494 105.089 25.794 139.252 25.794 139.252 37.062 126.728 48.2404C129.568 48.3002 132.108 48.9278 134.38 50.1533 136.621 51.3787 138.415 53.1421 139.73 55.4436 141.045 57.745 141.702 60.5844 141.702 63.932 141.702 67.2795 140.746 71.2248 138.863 73.9148 136.98 76.6347 134.35 78.6671 131.002 80.0719 127.655 81.4467 123.829 82.1641 119.465 82.1641L119.465 82.1641 119.465 82.1641Z" fill="#D40511" transform="matrix(1 0 0 1.00615 507 345)"/><path d="M167.466 82.1641C160.353 82.1641 155.152 79.8029 151.924 75.1103 148.696 70.4178 147.082 63.932 147.082 55.6827L147.082 51.02C147.082 42.7708 148.696 36.3148 151.924 31.5924 155.152 26.8998 160.323 24.5386 167.466 24.5386 174.61 24.5386 179.751 26.8998 182.949 31.5924 186.147 36.2849 187.761 42.7708 187.761 51.02L187.761 55.6827C187.761 63.932 186.177 70.3879 182.949 75.1103 179.751 79.8029 174.58 82.1641 167.466 82.1641ZM167.466 70.1488C169.589 70.1488 171.053 68.9832 171.89 66.6817 172.727 64.3803 173.145 60.5246 173.145 55.1148L173.145 51.4385C173.145 45.9987 172.727 42.1431 171.89 39.9014 171.053 37.6897 169.589 36.5539 167.466 36.5539 165.344 36.5539 163.85 37.6598 162.983 39.9014 162.116 42.1431 161.698 45.9688 161.698 51.4385L161.698 55.1148C161.698 60.5246 162.116 64.3803 162.983 66.6817 163.85 68.9832 165.344 70.1488 167.466 70.1488L167.466 70.1488Z" fill="#D40511" transform="matrix(1 0 0 1.00615 507 345)"/><path d="M77.0531 53.3514C77.0531 51.6776 76.4254 50.0337 75.1402 48.7485L54.9056 28.5138C52.365 25.9733 48.2404 25.9733 45.6998 28.5138L45.6998 28.5138C43.1593 31.0544 43.1593 35.179 45.6998 37.7196L61.3316 53.3514 45.6998 68.9832C43.1593 71.5237 43.1593 75.6483 45.6998 78.1889 48.2404 80.7294 52.365 80.7294 54.9056 78.1889L75.1402 57.9542C75.6184 57.476 76.007 56.938 76.3059 56.3701 76.7841 55.4436 77.0531 54.4273 77.0531 53.4111L77.0531 53.3514 77.0531 53.3514C77.0531 53.3514 77.0531 53.3514 77.0531 53.3514L77.0531 53.3514Z" fill="#D40511" transform="matrix(1 0 0 1.00615 507 345)"/><path d="M89.7558 80.1018C87.7533 80.1018 85.8703 79.3246 84.4655 77.9199L65.2172 58.6715C64.6792 58.1335 64.2308 57.5358 63.8722 56.8483 63.8722 56.8483 63.8722 56.7886 63.8423 56.7587 63.663 56.4299 63.5135 56.0712 63.394 55.6827 63.3342 55.5033 63.2744 55.324 63.2445 55.1148 63.0951 54.517 63.0353 53.9192 63.0353 53.3514 63.0353 52.7835 63.0353 52.7835 63.0951 52.4248 63.2146 51.5281 63.4836 50.6614 63.9021 49.8544 63.9021 49.8544 63.9618 49.7348 63.9917 49.7348 64.3205 49.1072 64.7688 48.5393 65.2471 48.0611L84.4954 28.8127C87.4245 25.8836 92.1768 25.8836 95.076 28.8127 98.0051 31.7418 98.0051 36.4941 95.076 39.3933L81.118 53.3514 95.076 67.3094 95.076 67.3094C98.0051 70.2385 98.0051 74.9908 95.076 77.89 93.6712 79.2948 91.7882 80.0719 89.7857 80.0719L89.7857 80.0719C89.7857 80.0719 89.7857 80.0719 89.7857 80.0719L89.7857 80.0719ZM66.2035 55.6528C66.4426 56.0712 66.7116 56.4598 67.0703 56.8184L86.3186 76.0668C88.2315 77.9797 91.31 77.9797 93.2229 76.0668 95.1358 74.1539 95.1358 71.0754 93.2229 69.1625L78.3383 54.2779C78.0992 54.0388 77.9498 53.71 77.9498 53.3514 77.9498 52.9927 78.0992 52.6639 78.3383 52.4248L93.2229 37.5402C94.1494 36.6137 94.6576 35.3882 94.6576 34.103 94.6576 32.8178 94.1494 31.5625 93.2229 30.6658 92.2963 29.7393 91.0709 29.2312 89.7857 29.2312 88.5005 29.2312 87.2452 29.7393 86.3485 30.6658L67.1002 49.9142C66.7714 50.2429 66.5024 50.6016 66.2633 51.02 66.2633 51.02 66.2035 51.1097 66.2035 51.1396 65.9644 51.6178 65.7851 52.1857 65.6954 52.7835 65.6655 53.0226 65.6655 53.2019 65.6655 53.3812 65.6655 53.7399 65.7253 54.1285 65.8149 54.5469 65.8448 54.6665 65.8747 54.786 65.9345 54.9056 66.0242 55.1746 66.1138 55.4137 66.2334 55.6229 66.2334 55.6229 66.2334 55.6528 66.2334 55.6827L66.2334 55.6827C66.2334 55.6827 66.2334 55.6827 66.2334 55.6827Z" fill="#D40511" transform="matrix(1 0 0 1.00615 507 345)"/></g></svg>