<svg width="75" height="75" xmlns="http://www.w3.org/2000/svg" xmlns:xlink="http://www.w3.org/1999/xlink" xml:space="preserve" overflow="hidden"><g transform="translate(-62 -173)"><path d="M104.584 186.929C106.314 186.929 108.045 187.105 109.743 187.448L110.557 183.457C108.596 183.061 106.588 182.857 104.589 182.857 97.7214 182.857 91.0357 185.257 85.7429 189.613L88.3304 192.757C92.8946 189.002 98.6643 186.929 104.589 186.929L104.589 186.929Z" fill="#D40511"/><path d="M80.3161 220.62 76.4589 221.911C78.9071 229.207 84.2482 235.411 91.1161 238.92L92.9696 235.293C87.0393 232.261 82.4268 226.909 80.3161 220.62Z" fill="#D40511"/><path d="M133.502 205.925 129.532 206.825C129.95 208.668 130.159 210.58 130.159 212.504 130.159 219.725 127.084 226.636 121.738 231.473L124.464 234.495C130.673 228.886 134.23 220.871 134.23 212.504 134.23 210.286 133.984 208.068 133.502 205.925L133.502 205.925Z" fill="#D40511"/><path d="M132.087 189.018C131.986 188.375 131.439 187.898 130.78 187.898L126.827 187.898C126.827 189.768 125.311 191.284 123.441 191.284 121.571 191.284 120.055 189.768 120.055 187.898L116.102 187.898C115.454 187.898 114.902 188.375 114.795 189.018L112.711 202.593 134.182 202.593 132.098 189.018 132.087 189.018Z" fill="#D40511"/><path d="M128.53 179.429C128.53 182.239 126.252 184.518 123.441 184.518 120.63 184.518 118.352 182.239 118.352 179.429 118.352 176.618 120.63 174.339 123.441 174.339 126.252 174.339 128.53 176.618 128.53 179.429Z" fill="#D40511"/><path d="M82.7429 191.675C82.7429 194.867 80.1549 197.455 76.9625 197.455 73.7701 197.455 71.1821 194.867 71.1821 191.675 71.1821 188.483 73.7701 185.895 76.9625 185.895 80.1549 185.895 82.7429 188.483 82.7429 191.675Z" fill="#D40511"/><path d="M86.8196 202.571 86.7982 202.571C86.6911 201.843 86.0536 201.302 85.325 201.302L80.8304 201.302C80.8304 203.429 79.1 205.159 76.9732 205.159 74.8464 205.159 73.1161 203.429 73.1161 201.302L68.6214 201.302C67.8768 201.302 67.2554 201.843 67.1482 202.571L64.7804 218.016 89.2036 218.016 86.8357 202.571 86.8196 202.571Z" fill="#D40511"/><path d="M119.787 228.43C119.659 227.562 118.914 226.936 118.046 226.936L112.732 226.936C112.732 229.448 110.696 231.484 108.184 231.484 105.671 231.484 103.636 229.448 103.636 226.936L98.3268 226.936C97.4536 226.936 96.7196 227.562 96.5857 228.43L93.7786 246.661 122.611 246.661 119.804 228.43 119.782 228.43 119.787 228.43 119.787 228.43Z" fill="#D40511"/><path d="M115.004 215.557C115.004 219.326 111.948 222.382 108.179 222.382 104.409 222.382 101.354 219.326 101.354 215.557 101.354 211.788 104.409 208.732 108.179 208.732 111.948 208.732 115.004 211.788 115.004 215.557Z" fill="#D40511"/></g></svg>