<svg width="105" height="106" xmlns="http://www.w3.org/2000/svg" xmlns:xlink="http://www.w3.org/1999/xlink" xml:space="preserve" overflow="hidden"><defs><clipPath id="clip0"><rect x="355" y="138" width="105" height="106"/></clipPath></defs><g clip-path="url(#clip0)" transform="translate(-355 -138)"><path d="M52.5 105C23.5509 105 0 81.4491 0 52.5 0 23.5509 23.5509 0 52.5 0 81.4491 0 105 23.5509 105 52.5 105 81.4491 81.4491 105 52.5 105ZM52.5 18.5294C33.7668 18.5294 18.5294 33.7668 18.5294 52.5 18.5294 71.2332 33.7668 86.4706 52.5 86.4706 71.2332 86.4706 86.4706 71.2332 86.4706 52.5 86.4706 33.7668 71.2332 18.5294 52.5 18.5294Z" fill="#FFCC00" transform="matrix(1 0 0 1.00952 355 138)"/><path d="M11.9082 49.3747C11.8712 49.98 11.7106 50.4926 11.4265 50.9126 11.1424 51.3326 10.7656 51.6476 10.2838 51.8576 9.80206 52.0676 9.24 52.1541 8.60382 52.1109L8.02941 52.0738C7.39324 52.0306 6.84971 51.8762 6.39265 51.6044 5.94176 51.3326 5.60206 50.9744 5.37971 50.5174 5.15735 50.0665 5.06471 49.5353 5.10176 48.93 5.16353 48.0159 5.54029 47.2809 6.24441 46.725L7.12147 47.6515C6.66441 48.0159 6.41735 48.4482 6.38647 48.9424 6.35559 49.4241 6.49147 49.8009 6.80029 50.085 7.10912 50.3629 7.56618 50.5235 8.17765 50.5668L8.62853 50.5976C9.23382 50.6347 9.70941 50.5421 10.0553 50.3074 10.4012 50.0726 10.5865 49.7144 10.6235 49.2326 10.6421 48.9856 10.605 48.7385 10.5247 48.4976 10.4382 48.2568 10.29 48.0221 10.0738 47.7874L11.0682 46.9782C11.3771 47.2871 11.6056 47.6453 11.7415 48.0529 11.8774 48.4606 11.9329 48.8991 11.9021 49.3685Z" transform="matrix(1 0 0 1.00952 355 138)"/><path d="M12.5938 44.2606C12.4394 44.9956 12.1121 45.5329 11.5994 45.8665 11.0868 46.2 10.4568 46.2926 9.71559 46.1382L9.32647 46.0579C8.58529 45.9035 8.04177 45.5762 7.70206 45.0635 7.36235 44.5509 7.26971 43.9332 7.41794 43.1921 7.56618 42.4571 7.89971 41.9197 8.41235 41.5862 8.925 41.2526 9.555 41.16 10.2962 41.3144L10.6853 41.3947C11.4265 41.5491 11.97 41.8765 12.3097 42.3891 12.6494 42.9018 12.7421 43.5194 12.5938 44.2606ZM11.4203 44.0197C11.4821 43.7171 11.4265 43.4576 11.2597 43.2476 11.0868 43.0315 10.7903 42.8832 10.3703 42.7968L10.0429 42.7288C9.62294 42.6424 9.29559 42.6609 9.04853 42.7906 8.80765 42.9203 8.65324 43.1365 8.59147 43.4391 8.52971 43.7418 8.58529 44.0012 8.75823 44.2174 8.93118 44.4335 9.22147 44.5818 9.64147 44.6682L9.96882 44.7362C10.3888 44.8226 10.7162 44.8041 10.9632 44.6744 11.2041 44.5447 11.3585 44.3285 11.4203 44.0259Z" transform="matrix(1 0 0 1.00952 355 138)"/><path d="M13.2053 41.0674 8.44941 39.3997 8.90029 38.1212 9.72794 38.4115C9.50559 38.1706 9.35118 37.905 9.25853 37.6147 9.16588 37.3244 9.18441 37.0032 9.30794 36.6512 9.47471 36.1818 9.765 35.8668 10.1788 35.7124 10.5926 35.5579 11.0868 35.5826 11.655 35.7865L14.6876 36.8488 14.2121 38.2015 11.34 37.1947C11.0868 37.1082 10.8644 37.0897 10.6729 37.1453 10.4815 37.2009 10.3456 37.3553 10.2591 37.5962 10.1912 37.7815 10.1788 37.9606 10.2221 38.1212 10.2591 38.2879 10.3332 38.4362 10.4321 38.5659L13.6871 39.7085 13.2115 41.0612Z" transform="matrix(1 0 0 1.00952 355 138)"/><path d="M15.0953 35.8976 10.605 33.6062 11.2226 32.4018 12.0071 32.8032C11.8156 32.5376 11.6982 32.2535 11.6488 31.9509 11.5994 31.6482 11.6612 31.3332 11.8279 31.0059 12.0565 30.5612 12.3838 30.2894 12.8162 30.1968 13.2485 30.1041 13.7303 30.1968 14.2676 30.4685L17.1274 31.9324 16.4726 33.2109 13.7612 31.8274C13.5203 31.7038 13.3041 31.6606 13.1065 31.6915 12.9088 31.7224 12.7544 31.8521 12.6371 32.0806 12.5444 32.2535 12.5074 32.4265 12.5259 32.5994 12.5444 32.7662 12.5938 32.9268 12.6741 33.0688L15.7438 34.6376 15.0891 35.9162Z" transform="matrix(1 0 0 1.00952 355 138)"/><path d="M19.0482 29.2518C18.6221 29.8756 18.1032 30.2524 17.4918 30.3821 16.8865 30.5118 16.2626 30.3574 15.6265 29.9188L15.2991 29.6965C14.6753 29.2703 14.2985 28.7576 14.1812 28.1647 14.0576 27.5718 14.1935 26.9912 14.5888 26.4168 14.9903 25.8362 15.4782 25.5088 16.0526 25.4409 16.6271 25.3668 17.2385 25.5521 17.8685 25.9906L18.375 26.3365 16.6209 28.8874C17.2447 29.2209 17.7574 29.0974 18.1588 28.5168 18.2885 28.3253 18.3812 28.1338 18.4368 27.9362 18.4924 27.7385 18.5232 27.5285 18.5294 27.3L19.5979 27.3309C19.6165 27.6459 19.5794 27.9671 19.4929 28.2944 19.4065 28.6218 19.2582 28.9429 19.0421 29.2579ZM15.5153 27.09C15.3547 27.3247 15.3115 27.5471 15.3794 27.7632 15.4535 27.9794 15.6141 28.1894 15.8797 28.3932L16.8618 26.9603C16.5776 26.7874 16.3244 26.7132 16.0959 26.7194 15.8674 26.7318 15.6759 26.8553 15.5153 27.09Z" transform="matrix(1 0 0 1.00952 355 138)"/><path d="M22.1982 25.2741C21.8771 25.6385 21.5188 25.8918 21.1359 26.0276 20.7468 26.1635 20.3515 26.1882 19.95 26.0894 19.5485 25.9906 19.1594 25.7806 18.7888 25.4594L18.4924 25.2C18.1279 24.8788 17.8685 24.5206 17.7265 24.1376 17.5782 23.7485 17.5474 23.3532 17.6276 22.9518 17.7079 22.5503 17.9056 22.1735 18.2206 21.8153 18.4491 21.5559 18.7085 21.3521 18.9988 21.2038 19.2891 21.0494 19.5918 20.9691 19.8944 20.9444L20.1044 22.0809C19.74 22.1118 19.4559 22.2538 19.2397 22.4947 19.0174 22.7479 18.9309 23.0197 18.9679 23.31 19.0112 23.6003 19.1779 23.8782 19.4682 24.1315L19.7215 24.3538C20.0118 24.6132 20.3082 24.7368 20.6047 24.7368 20.9012 24.7368 21.1668 24.6071 21.3953 24.3476 21.6053 24.1068 21.7165 23.7918 21.7226 23.4088L22.8715 23.4829C22.9024 24.1376 22.6738 24.7368 22.2044 25.2741Z" transform="matrix(1 0 0 1.00952 355 138)"/><path d="M25.3112 22.1241C24.8232 22.5812 24.3662 22.7974 23.9585 22.7665 23.5447 22.7356 23.1062 22.4762 22.6491 21.9759L21.3891 20.6294 20.8579 21.1297 20.0612 20.2774 20.6109 19.7647 19.845 18.9494 20.6479 17.7635 21.63 18.8074 22.4144 18.0724 23.2112 18.9247 22.4391 19.6474 23.6621 20.9506C23.8844 21.1853 24.0759 21.3026 24.2365 21.2965 24.3971 21.2965 24.57 21.21 24.7429 21.0494 24.78 21.0124 24.8232 20.9753 24.8603 20.9321 24.8974 20.8888 24.9406 20.8456 24.9715 20.8085L25.7621 21.6547C25.7065 21.7226 25.6447 21.7968 25.5706 21.8771 25.4965 21.9574 25.41 22.0376 25.3235 22.1241Z" transform="matrix(1 0 0 1.00952 355 138)"/><path d="M28.2203 19.7832C27.615 20.2403 27.0035 20.4318 26.3859 20.3638 25.7682 20.2959 25.2247 19.95 24.7615 19.3324L24.5268 19.0174C24.0697 18.4121 23.8782 17.8129 23.9524 17.2138 24.0265 16.6147 24.3415 16.1082 24.8974 15.6821 25.4594 15.2559 26.0276 15.1015 26.5959 15.2188 27.1641 15.3362 27.6829 15.7006 28.1462 16.3182L28.5168 16.8062 26.0462 18.6653C26.5341 19.1779 27.0591 19.2274 27.6212 18.8012 27.8065 18.6653 27.9547 18.5109 28.0721 18.3379 28.1894 18.1712 28.2821 17.9735 28.3624 17.7635L29.3691 18.1341C29.2826 18.4368 29.1468 18.7332 28.9615 19.0174 28.7762 19.3015 28.5291 19.5609 28.2265 19.7894ZM25.5582 16.6209C25.3297 16.7938 25.2185 16.9915 25.2185 17.22 25.2185 17.4485 25.305 17.7018 25.4903 17.9735L26.88 16.9297C26.6638 16.6765 26.4476 16.5221 26.2315 16.4603 26.0091 16.3985 25.7868 16.4541 25.5644 16.6271Z" transform="matrix(1 0 0 1.00952 355 138)"/><path d="M31.9509 17.2879C31.4629 17.5659 30.975 17.5906 30.4809 17.3744 29.9868 17.1582 29.5544 16.7197 29.19 16.065L28.9985 15.7191C28.6279 15.0644 28.4797 14.4715 28.5476 13.9341 28.6156 13.3968 28.8935 12.9953 29.3815 12.7174 29.9497 12.3962 30.5118 12.4271 31.0615 12.8162L29.7397 10.4753 30.9874 9.77118 34.3844 15.7994 33.2047 16.4665 32.7785 15.7068C32.8094 16.0403 32.7476 16.3429 32.6056 16.6209 32.4635 16.8988 32.2474 17.1212 31.9509 17.2818ZM30.4191 15.3362C30.6168 15.6882 30.8391 15.9168 31.08 16.0279 31.3209 16.1391 31.5741 16.1206 31.8335 15.9724 32.1485 15.7932 32.3276 15.5153 32.3647 15.1385L31.4259 13.4771C31.0862 13.3226 30.7588 13.3288 30.4438 13.5079 30.1844 13.6562 30.0424 13.86 30.0053 14.1256 29.9744 14.3912 30.0547 14.6938 30.2524 15.0459L30.4191 15.3362Z" transform="matrix(1 0 0 1.00952 355 138)"/><path d="M37.2379 14.5271 35.1503 8.35059 37.5097 7.55382C38.2571 7.30059 38.9118 7.27588 39.4676 7.47971 40.0235 7.68353 40.4065 8.09118 40.6103 8.69647L40.6782 8.89412C40.8821 9.49941 40.8265 10.0491 40.5115 10.5494 40.1965 11.0497 39.6591 11.4265 38.9056 11.6797L37.9606 12.0009 38.6524 14.0515 37.2379 14.5271ZM37.8926 8.70265 36.9476 9.02382 37.5653 10.8521 38.5103 10.5309C38.8376 10.4197 39.06 10.2653 39.1897 10.0615 39.3194 9.85765 39.3379 9.61676 39.2453 9.345L39.1959 9.20294C39.1032 8.93735 38.9488 8.75823 38.7203 8.67176 38.4918 8.58529 38.2138 8.59765 37.8926 8.70882Z" transform="matrix(1 0 0 1.00952 355 138)"/><path d="M44.8288 12.4888C44.0876 12.6371 43.4515 12.5444 42.9265 12.2109 42.4015 11.8774 42.0618 11.3338 41.9135 10.5741L41.8394 10.185C41.6912 9.44382 41.7838 8.81382 42.1112 8.30735 42.4385 7.80088 42.945 7.47971 43.6306 7.34382 44.3224 7.20794 44.8968 7.31294 45.36 7.665 45.8232 8.01706 46.1259 8.57294 46.2741 9.32647L46.3915 9.92559 43.3588 10.5247C43.575 11.2041 44.0259 11.4697 44.7176 11.3338 44.9462 11.2906 45.1438 11.2165 45.3229 11.1115 45.5021 11.0065 45.6688 10.8768 45.8356 10.7162L46.5829 11.4882C46.3729 11.7229 46.1259 11.9268 45.8356 12.1059 45.5453 12.2788 45.2118 12.4024 44.835 12.4765ZM43.8221 8.47412C43.5441 8.52971 43.3526 8.65941 43.2538 8.86324 43.155 9.06706 43.1241 9.33265 43.1674 9.66L44.8721 9.32647C44.7918 9.00529 44.6621 8.77059 44.4891 8.62235 44.3162 8.47412 44.0938 8.42471 43.8159 8.48029Z" transform="matrix(1 0 0 1.00952 355 138)"/><path d="M49.8565 11.8526C49.1091 11.9021 48.5038 11.7229 48.0468 11.3153 47.5897 10.9076 47.3365 10.3271 47.2871 9.57353L47.2624 9.17824C47.2129 8.42471 47.3921 7.81323 47.7935 7.35 48.195 6.88676 48.7694 6.63353 49.5229 6.58412 50.2703 6.53471 50.8756 6.71382 51.3388 7.12147 51.7959 7.52912 52.0491 8.10971 52.0985 8.86324L52.1232 9.25853C52.1726 10.0121 51.9935 10.6235 51.5921 11.0868 51.1906 11.55 50.6162 11.8032 49.8626 11.8526ZM49.7824 10.6606C50.0912 10.6421 50.3259 10.5185 50.4865 10.2962 50.6471 10.0738 50.715 9.75265 50.6841 9.32029L50.6594 8.98676C50.6285 8.56059 50.5235 8.24559 50.3382 8.04794 50.1529 7.85029 49.8997 7.75765 49.5909 7.77618 49.2821 7.79471 49.0474 7.91823 48.8868 8.14059 48.7262 8.36294 48.6582 8.68412 48.6891 9.11647L48.7138 9.45C48.7385 9.87618 48.8497 10.1912 49.035 10.3888 49.2203 10.5865 49.4735 10.6791 49.7824 10.6606Z" transform="matrix(1 0 0 1.00952 355 138)"/><path d="M52.9941 13.4647 53.4635 6.56559 54.8162 6.65824 54.7544 7.52294C54.915 7.23265 55.125 7.01029 55.3968 6.85588 55.6685 6.70147 55.9712 6.63971 56.3047 6.65824 56.8729 6.69529 57.2991 6.94235 57.5894 7.39324 57.8797 7.84412 57.9971 8.44941 57.9476 9.19676L57.9229 9.59206C57.8735 10.3394 57.6697 10.92 57.3238 11.3276 56.9779 11.7353 56.5209 11.9206 55.9526 11.8835 55.3041 11.8403 54.8532 11.5068 54.6062 10.8829L54.4209 13.5635 52.9941 13.4647ZM55.6932 7.82559C55.335 7.80088 55.0324 7.93676 54.7915 8.22706L54.6618 10.1294C54.8594 10.4444 55.1374 10.6174 55.5018 10.6421 55.7982 10.6606 56.0329 10.5741 56.2059 10.3703 56.3788 10.1665 56.4776 9.86382 56.5024 9.46235L56.5271 9.12882C56.5518 8.72735 56.4962 8.41235 56.3541 8.19 56.2121 7.96765 55.9897 7.84412 55.6932 7.82559Z" transform="matrix(1 0 0 1.00952 355 138)"/><path d="M60.1403 12.4579C59.5535 12.3591 59.1829 12.1553 59.0162 11.8588 58.8494 11.5624 58.8124 11.1609 58.8988 10.6606L59.8253 5.28706 61.2397 5.52794 60.3256 10.8335C60.2947 11.0003 60.3132 11.13 60.375 11.2103 60.4368 11.2906 60.5418 11.3462 60.6838 11.3709 60.7394 11.3832 60.8074 11.3832 60.8753 11.3832L60.6776 12.5197C60.5171 12.5135 60.3441 12.495 60.1465 12.4579Z" transform="matrix(1 0 0 1.00952 355 138)"/><path d="M63.5435 13.2794C62.8147 13.0818 62.2835 12.7112 61.9624 12.18 61.6412 11.6488 61.5794 11.0126 61.7832 10.2653L61.8882 9.88235C62.0859 9.15353 62.4503 8.63471 62.9691 8.32588 63.4879 8.01706 64.0809 7.95529 64.7603 8.14059 65.4397 8.32588 65.9091 8.68412 66.1624 9.20294 66.4218 9.72176 66.4465 10.3579 66.2426 11.0991L66.0821 11.6921 63.0988 10.8706C62.9876 11.5685 63.2718 12.0132 63.9512 12.1985 64.1735 12.2603 64.3897 12.285 64.5935 12.2726 64.7974 12.2603 65.0074 12.2171 65.2297 12.1491L65.5509 13.1682C65.2606 13.2856 64.9456 13.3597 64.6059 13.3844 64.2662 13.4091 63.9141 13.3721 63.5435 13.2732ZM64.4268 9.24C64.155 9.16588 63.9265 9.19676 63.7474 9.33265 63.5682 9.46853 63.42 9.69706 63.315 10.0059L64.9888 10.4691C65.0568 10.1479 65.0506 9.87618 64.9641 9.66618 64.8776 9.45618 64.6985 9.31412 64.4268 9.23382Z" transform="matrix(1 0 0 1.00952 355 138)"/><path d="M62.6665 63.6856 61.2397 62.1044C64.0376 59.5721 65.6435 55.9588 65.6435 52.185 65.6435 51.1844 65.5323 50.1838 65.31 49.2141L67.3853 48.7447C67.6385 49.8626 67.7682 51.0238 67.7682 52.185 67.7682 56.5641 65.9091 60.7518 62.6603 63.6856Z" fill="#D40511" transform="matrix(1 0 0 1.00952 355 138)"/><path d="M43.7665 41.8518 42.4138 40.2088C45.1809 37.9297 48.6829 36.6759 52.2715 36.6759 53.3215 36.6759 54.3715 36.7809 55.3968 36.9909L54.9706 39.0785C54.0874 38.8994 53.1794 38.8068 52.2715 38.8068 49.1771 38.8068 46.1568 39.8876 43.7665 41.8518Z" fill="#D40511" transform="matrix(1 0 0 1.00952 355 138)"/><path d="M45.2241 65.9956C41.6294 64.1612 38.8376 60.9185 37.5591 57.1015L39.5788 56.4282C40.6782 59.7203 43.0932 62.5182 46.1938 64.1056L45.2241 66.0018Z" fill="#D40511" transform="matrix(1 0 0 1.00952 355 138)"/><path d="M62.1291 37.5468C63.5991 37.5468 64.7912 36.3547 64.7912 34.8847 64.7912 33.4147 63.5991 32.2226 62.1291 32.2226 60.6591 32.2226 59.4671 33.4147 59.4671 34.8847 59.4671 36.3547 60.6591 37.5468 62.1291 37.5468ZM66.6503 39.9C66.5947 39.5665 66.3106 39.3132 65.9709 39.3132L63.9018 39.3132C63.9018 40.2953 63.1112 41.0859 62.1291 41.0859 61.1471 41.0859 60.3565 40.2953 60.3565 39.3132L58.2874 39.3132C57.9476 39.3132 57.6574 39.5603 57.6079 39.9L56.5147 46.9968 67.7435 46.9968 66.6503 39.9Z" fill="#D40511" transform="matrix(1 0 0 1.00952 355 138)"/><path d="M37.8247 44.3162C39.4985 44.3162 40.845 42.9635 40.845 41.2959 40.845 39.6282 39.4924 38.2756 37.8247 38.2756 36.1571 38.2756 34.8044 39.6282 34.8044 41.2959 34.8044 42.9635 36.1571 44.3162 37.8247 44.3162ZM42.9697 46.9906C42.9141 46.6076 42.5806 46.3235 42.1976 46.3235L39.8444 46.3235C39.8444 47.4353 38.9426 48.3432 37.8247 48.3432 36.7068 48.3432 35.805 47.4415 35.805 46.3235L33.4518 46.3235C33.0626 46.3235 32.7415 46.6076 32.6797 46.9906L31.4382 55.0694 44.2112 55.0694 42.9697 46.9906 42.9574 46.9906Z" fill="#D40511" transform="matrix(1 0 0 1.00952 355 138)"/><path d="M54.1491 57.3485C56.1256 57.3485 57.7191 55.755 57.7191 53.7785 57.7191 51.8021 56.1256 50.2085 54.1491 50.2085 52.1726 50.2085 50.5791 51.8021 50.5791 53.7785 50.5791 55.755 52.1726 57.3485 54.1491 57.3485ZM60.2206 60.5109C60.1526 60.06 59.7635 59.7265 59.3126 59.7265L56.5332 59.7265C56.5332 61.0421 55.4709 62.1044 54.1553 62.1044 52.8397 62.1044 51.7774 61.0421 51.7774 59.7265L48.9979 59.7265C48.5409 59.7265 48.1579 60.0538 48.09 60.5109L46.62 70.0474 61.7029 70.0474 60.2329 60.5109C60.2329 60.5109 60.2206 60.5109 60.2206 60.5109Z" fill="#D40511" transform="matrix(1 0 0 1.00952 355 138)"/></g></svg>