<svg width="75" height="75" xmlns="http://www.w3.org/2000/svg" xmlns:xlink="http://www.w3.org/1999/xlink" xml:space="preserve" overflow="hidden"><defs><clipPath id="clip0"><rect x="267" y="173" width="75" height="75"/></clipPath></defs><g clip-path="url(#clip0)" transform="translate(-267 -173)"><path d="M340.221 173.482 307.891 173.482C306.734 173.482 306.161 174.88 306.975 175.7L316.275 185C316.629 185.354 317.1 185.552 317.598 185.552L327.514 185.552C328.591 185.552 329.459 186.42 329.459 187.496L329.464 187.496 329.464 197.413C329.464 197.911 329.663 198.393 330.016 198.736L339.316 208.036C340.13 208.85 341.534 208.271 341.534 207.12L341.534 174.779C341.534 174.061 340.95 173.482 340.227 173.482L340.227 173.482Z" fill="#D40511"/><path d="M319.007 194.712 268.291 194.712C267.134 194.712 266.561 196.111 267.375 196.93L277.639 207.195C277.993 207.548 278.464 207.746 278.962 207.746L305.314 207.746C306.391 207.746 307.259 208.614 307.259 209.691L307.264 209.691 307.264 236.032C307.264 236.53 307.462 237.012 307.816 237.355L318.08 247.62C318.895 248.434 320.298 247.855 320.298 246.704L320.298 196.009C320.298 195.291 319.72 194.712 319.002 194.712L319.007 194.712Z" fill="#D40511"/></g></svg>