<svg width="75" height="75" xmlns="http://www.w3.org/2000/svg" xmlns:xlink="http://www.w3.org/1999/xlink" xml:space="preserve" overflow="hidden"><g transform="translate(-373 -173)"><path d="M425.189 175.571C419.725 175.571 414.593 177.505 410.505 181.046 406.423 177.505 401.286 175.571 395.821 175.571 383.409 175.571 373.321 185.659 373.321 198.071 373.321 204.093 375.673 209.755 379.916 213.982L410.5 245.429 410.5 245.429 441.057 214.014C445.327 209.766 447.679 204.104 447.679 198.071 447.679 185.659 437.58 175.571 425.179 175.571 425.179 175.571 425.189 175.571 425.189 175.571ZM437.789 210.773 410.511 238.818 383.205 210.741C379.814 207.366 377.939 202.861 377.939 198.066 377.939 188.209 385.964 180.179 395.821 180.173 400.788 180.173 405.405 182.177 408.823 185.814L410.5 187.587 412.177 185.814C415.611 182.171 420.229 180.173 425.189 180.173 435.052 180.173 443.082 188.204 443.082 198.066 443.082 202.855 441.207 207.361 437.784 210.768L437.789 210.768 437.789 210.768Z" fill="#D40511"/><path d="M425.189 185.246C421.638 185.246 418.316 186.682 415.862 189.296L410.5 194.98 405.138 189.296C402.684 186.682 399.362 185.246 395.811 185.246L395.832 185.246C388.761 185.241 383.002 190.989 383.002 198.066 383.002 201.5 384.352 204.725 386.773 207.152L386.859 207.238 410.505 231.559 434.243 207.163C436.68 204.73 438.014 201.516 438.014 198.077 438.014 191.005 432.255 185.246 425.184 185.246L425.195 185.246 425.195 185.246Z" fill="#D40511"/></g></svg>