<svg width="188" height="114" xmlns="http://www.w3.org/2000/svg" xmlns:xlink="http://www.w3.org/1999/xlink" xml:space="preserve" overflow="hidden"><g transform="translate(-496 -185)"><path d="M4.03699 12.1404 4.03699 3.65392 1.29655 3.65392 1.29655 1.14922 9.63574 1.14922 9.63574 3.62445 6.92477 3.62445 6.92477 12.111 4.00752 12.111Z" fill="#D40511" transform="matrix(1 0 0 1.00486 496 185)"/><path d="M14.9693 12.4056C13.4665 12.4056 12.3172 11.9342 11.4922 11.0207 10.6966 10.1072 10.284 8.81066 10.284 7.13103L10.284 6.18809C10.284 4.50846 10.6966 3.21191 11.4922 2.29843 12.2878 1.38495 13.4665 0.91348 14.9693 0.91348 16.4721 0.91348 17.6213 1.38495 18.4464 2.29843 19.242 3.21191 19.6545 4.50846 19.6545 6.18809L19.6545 7.13103C19.6545 8.81066 19.242 10.1072 18.4464 11.0207 17.6508 11.9342 16.4721 12.4056 14.9693 12.4056ZM14.9693 9.87147C15.5881 9.87147 16.0596 9.63574 16.3248 9.16426 16.59 8.69279 16.7373 7.98558 16.7373 7.01317L16.7373 6.27649C16.7373 5.30408 16.59 4.59687 16.3248 4.12539 16.0596 3.65392 15.5881 3.41818 14.9693 3.41818 14.3505 3.41818 13.879 3.65392 13.6138 4.12539 13.3486 4.59687 13.2013 5.30408 13.2013 6.27649L13.2013 7.01317C13.2013 7.98558 13.3486 8.69279 13.6138 9.16426 13.879 9.63574 14.3505 9.87147 14.9693 9.87147Z" fill="#D40511" transform="matrix(1 0 0 1.00486 496 185)"/><path d="M25.489 12.4056C24.0451 12.4056 22.9254 11.9342 22.1592 11.0207 21.3931 10.1072 20.9806 8.81066 20.9806 7.10157L20.9806 6.15862C20.9806 5.03887 21.1868 4.09592 21.5699 3.30031 21.953 2.5047 22.5129 1.91536 23.1906 1.50282 23.8978 1.09028 24.6934 0.884013 25.6364 0.884013 27.1981 0.884013 28.4063 1.38495 29.2313 2.4163L27.5517 4.27273C27.2865 3.94859 27.0213 3.74232 26.6972 3.59498 26.4025 3.44765 26.0489 3.38871 25.6658 3.38871 25.047 3.38871 24.5756 3.62445 24.3103 4.09592 24.0157 4.5674 23.8683 5.27461 23.8683 6.24702L23.8683 6.9837C23.8683 7.95611 23.9862 8.69279 24.2514 9.1348 24.5166 9.60627 24.8997 9.84201 25.4596 9.84201 26.0194 9.84201 26.3436 9.6652 26.6088 9.3116 26.8445 8.95799 26.9918 8.51599 27.0213 7.92665L25.3122 7.92665 25.3122 5.56928 29.8502 5.56928 29.8502 7.54357C29.8502 9.0464 29.4671 10.2251 28.6715 11.0502 27.9053 11.8752 26.815 12.3172 25.4301 12.3172L25.489 12.4056Z" fill="#D40511" transform="matrix(1 0 0 1.00486 496 185)"/><path d="M31.5298 12.1404 31.5298 1.14922 38.5135 1.14922 38.5135 3.62445 34.4176 3.62445 34.4176 5.39248 38.0715 5.39248 38.0715 7.77931 34.4176 7.77931 34.4176 9.6652 38.6903 9.6652 38.6903 12.1404 31.5298 12.1404Z" fill="#D40511" transform="matrix(1 0 0 1.00486 496 185)"/><path d="M42.3442 12.1404 42.3442 3.65392 39.6332 3.65392 39.6332 1.14922 47.9724 1.14922 47.9724 3.62445 45.2614 3.62445 45.2614 12.111 42.3442 12.111Z" fill="#D40511" transform="matrix(1 0 0 1.00486 496 185)"/><path d="M49.21 12.1404 49.21 1.14922 52.0978 1.14922 52.0978 5.33354 55.0445 5.33354 55.0445 1.14922 57.9323 1.14922 57.9323 12.1404 55.0445 12.1404 55.0445 7.83824 52.0978 7.83824 52.0978 12.1404 49.21 12.1404Z" fill="#D40511" transform="matrix(1 0 0 1.00486 496 185)"/><path d="M60.0245 12.1404 60.0245 1.14922 67.0081 1.14922 67.0081 3.62445 62.9122 3.62445 62.9122 5.39248 66.5661 5.39248 66.5661 7.77931 62.9122 7.77931 62.9122 9.6652 67.185 9.6652 67.185 12.1404 60.0245 12.1404Z" fill="#D40511" transform="matrix(1 0 0 1.00486 496 185)"/><path d="M68.953 12.1404 68.953 1.14922 72.7248 1.14922C74.1392 1.14922 75.2295 1.41442 76.0251 1.97429 76.8207 2.5047 77.2038 3.41818 77.2038 4.6558L77.2038 4.97994C77.2038 5.74608 77.0564 6.36489 76.7912 6.86583 76.4966 7.36677 76.084 7.74984 75.5536 8.01505L77.6752 12.1404 74.3749 12.1404 72.7837 8.54545 71.8702 8.54545 71.8702 12.1404 68.953 12.1404ZM72.7837 3.44765 71.8113 3.44765 71.8113 6.27649 72.7837 6.27649C73.2552 6.27649 73.6088 6.18809 73.874 5.98182 74.1392 5.80502 74.2865 5.45141 74.2865 4.97994L74.2865 4.7442C74.2865 4.24326 74.1392 3.91912 73.874 3.74232 73.6088 3.56552 73.2552 3.47712 72.7837 3.47712L72.7837 3.47712Z" fill="#D40511" transform="matrix(1 0 0 1.00486 496 185)"/><path d="M86.2502 12.4056C84.8063 12.4056 83.716 11.9931 82.9793 11.1975 82.2426 10.4019 81.889 9.1348 81.889 7.42571L81.889 1.14922 84.8063 1.14922 84.8063 7.27837C84.8063 8.16238 84.8947 8.81066 85.1009 9.19373 85.3072 9.60627 85.6903 9.78307 86.2796 9.78307 86.869 9.78307 87.252 9.5768 87.4583 9.19373 87.6646 8.78119 87.753 8.16238 87.753 7.27837L87.753 1.14922 90.5818 1.14922 90.5818 7.39624C90.5818 9.10533 90.2282 10.3724 89.4915 11.168 88.7549 11.9636 87.694 12.3762 86.2502 12.3762L86.2502 12.3762Z" fill="#D40511" transform="matrix(1 0 0 1.00486 496 185)"/><path d="M92.5856 12.1404 92.5856 1.14922 96.269 1.14922 98.6263 8.22132 98.921 8.22132 98.921 1.14922 101.573 1.14922 101.573 12.1404 97.8897 12.1404 95.5323 5.06834 95.2376 5.06834 95.2376 12.1404 92.5856 12.1404Z" fill="#D40511" transform="matrix(1 0 0 1.00486 496 185)"/><path d="M106.789 12.4056C105.168 12.4056 103.871 11.9342 102.87 10.9912L104.196 8.98746C104.932 9.60627 105.816 9.90094 106.818 9.90094 107.82 9.90094 108.174 9.60627 108.174 9.01693 108.174 8.42759 108.115 8.57492 107.967 8.45705 107.82 8.30972 107.614 8.19185 107.29 8.10345L106.052 7.69091C105.109 7.39624 104.431 6.9837 103.989 6.45329 103.547 5.92288 103.341 5.24514 103.341 4.44953 103.341 3.65392 103.695 2.47523 104.431 1.85643 105.168 1.23762 106.17 0.942947 107.466 0.942947 108.763 0.942947 108.763 1.03135 109.382 1.23762 110.001 1.44389 110.561 1.73856 111.032 2.12163L109.765 4.21379C109.47 3.94859 109.117 3.77179 108.704 3.65392 108.292 3.53605 107.908 3.47712 107.525 3.47712 107.142 3.47712 106.818 3.56552 106.612 3.71285 106.406 3.86019 106.288 4.06646 106.288 4.33166 106.288 4.59687 106.347 4.7442 106.494 4.86207 106.641 5.0094 106.848 5.12727 107.142 5.21567L108.409 5.62821C110.236 6.21756 111.15 7.30784 111.15 8.92853 111.15 10.5492 110.767 10.9323 110.001 11.5511 109.234 12.1699 108.174 12.494 106.818 12.494L106.818 12.4056 106.789 12.4056Z" fill="#D40511" transform="matrix(1 0 0 1.00486 496 185)"/><path d="M114.421 12.1404 114.421 3.65392 111.71 3.65392 111.71 1.14922 120.049 1.14922 120.049 3.62445 117.338 3.62445 117.338 12.111 114.421 12.111 114.421 12.111Z" fill="#D40511" transform="matrix(1 0 0 1.00486 496 185)"/><path d="M125.353 12.4056C123.85 12.4056 122.701 11.9342 121.876 11.0207 121.08 10.1072 120.668 8.81066 120.668 7.13103L120.668 6.18809C120.668 4.50846 121.08 3.21191 121.876 2.29843 122.671 1.38495 123.85 0.91348 125.353 0.91348 126.856 0.91348 128.005 1.38495 128.83 2.29843 129.626 3.21191 130.038 4.50846 130.038 6.18809L130.038 7.13103C130.038 8.81066 129.626 10.1072 128.83 11.0207 128.034 11.9342 126.856 12.4056 125.353 12.4056ZM125.353 9.87147C125.972 9.87147 126.443 9.63574 126.708 9.16426 126.974 8.69279 127.121 7.98558 127.121 7.01317L127.121 6.27649C127.121 5.30408 126.974 4.59687 126.708 4.12539 126.443 3.65392 125.972 3.41818 125.353 3.41818 124.734 3.41818 124.263 3.65392 123.997 4.12539 123.732 4.59687 123.585 5.30408 123.585 6.27649L123.585 7.01317C123.585 7.98558 123.732 8.69279 123.997 9.16426 124.263 9.63574 124.734 9.87147 125.353 9.87147Z" fill="#D40511" transform="matrix(1 0 0 1.00486 496 185)"/><path d="M131.777 12.1404 131.777 1.14922 135.549 1.14922C136.963 1.14922 138.053 1.44389 138.849 2.00376 139.645 2.56364 140.028 3.47712 140.028 4.7442L140.028 5.06834C140.028 6.33542 139.645 7.21944 138.849 7.80878 138.053 8.36865 136.963 8.66332 135.549 8.66332L134.665 8.66332 134.665 12.1699 131.777 12.1699ZM135.608 3.50658 134.665 3.50658 134.665 6.33542 135.608 6.33542C136.079 6.33542 136.433 6.24702 136.698 6.07022 136.963 5.89342 137.11 5.56928 137.11 5.06834L137.11 4.8326C137.11 4.33166 136.963 3.97806 136.698 3.80125 136.433 3.62445 136.079 3.53605 135.608 3.53605L135.608 3.53605Z" fill="#D40511" transform="matrix(1 0 0 1.00486 496 185)"/><path d="M141.383 12.1404 141.383 1.14922 145.155 1.14922C146.569 1.14922 147.66 1.44389 148.455 2.00376 149.251 2.56364 149.634 3.47712 149.634 4.7442L149.634 5.06834C149.634 6.33542 149.251 7.21944 148.455 7.80878 147.66 8.36865 146.569 8.66332 145.155 8.66332L144.271 8.66332 144.271 12.1699 141.383 12.1699ZM145.214 3.50658 144.271 3.50658 144.271 6.33542 145.214 6.33542C145.685 6.33542 146.039 6.24702 146.304 6.07022 146.569 5.89342 146.717 5.56928 146.717 5.06834L146.717 4.8326C146.717 4.33166 146.569 3.97806 146.304 3.80125 146.039 3.62445 145.685 3.53605 145.214 3.53605L145.214 3.53605Z" fill="#D40511" transform="matrix(1 0 0 1.00486 496 185)"/><path d="M149.487 12.1404 152.227 1.14922 156.529 1.14922 159.27 12.1404 156.205 12.1404 155.763 9.98934 152.816 9.98934 152.374 12.1404 149.487 12.1404 149.487 12.1404ZM154.054 3.80125 153.229 7.69091 155.233 7.69091 154.437 3.80125 154.054 3.80125Z" fill="#D40511" transform="matrix(1 0 0 1.00486 496 185)"/><path d="M160.389 12.1404 160.389 1.14922 164.426 1.14922C165.723 1.14922 166.695 1.35549 167.373 1.79749 168.051 2.2395 168.404 2.94671 168.404 3.88966L168.404 4.18433C168.404 4.7442 168.257 5.21567 167.992 5.59875 167.697 5.98182 167.344 6.27649 166.843 6.48276 167.402 6.7185 167.815 7.01317 168.139 7.42571 168.434 7.83824 168.611 8.30972 168.611 8.86959L168.611 9.19373C168.611 9.93041 168.434 10.5197 168.051 10.9618 167.668 11.3743 167.167 11.6984 166.548 11.8458 165.929 12.0226 165.251 12.111 164.544 12.111L160.389 12.111ZM164.367 3.18245 163.159 3.18245 163.159 5.62821 164.367 5.62821C164.633 5.62821 164.898 5.53981 165.163 5.36301 165.399 5.18621 165.517 4.89154 165.517 4.479L165.517 4.30219C165.517 3.88966 165.399 3.59498 165.163 3.44765 164.927 3.27085 164.662 3.21191 164.367 3.21191L164.367 3.21191ZM163.189 10.1367 164.485 10.1367C164.868 10.1367 165.163 10.0483 165.369 9.87147 165.576 9.69467 165.693 9.4 165.693 8.95799L165.693 8.78119C165.693 8.36865 165.576 8.04451 165.369 7.86771 165.163 7.69091 164.868 7.60251 164.485 7.60251L163.189 7.60251 163.189 10.1367Z" fill="#D40511" transform="matrix(1 0 0 1.00486 496 185)"/><path d="M170.261 12.1404 170.261 1.14922 173.149 1.14922 173.149 9.5768 176.979 9.5768 176.979 12.1404C176.979 12.1404 170.261 12.1404 170.261 12.1404Z" fill="#D40511" transform="matrix(1 0 0 1.00486 496 185)"/><path d="M178.364 12.1404 178.364 1.14922 185.348 1.14922 185.348 3.62445 181.252 3.62445 181.252 5.39248 184.906 5.39248 184.906 7.77931 181.252 7.77931 181.252 9.6652 185.525 9.6652 185.525 12.1404 178.364 12.1404Z" fill="#D40511" transform="matrix(1 0 0 1.00486 496 185)"/><path d="M3.53605 79.7969 3.53605 68.6878 20.185 50.4771C21.5994 48.9448 22.6602 47.5304 23.3674 46.2928 24.0451 45.0257 24.3987 43.6997 24.3987 42.3442 24.3987 40.9887 23.8978 38.9555 22.8665 37.9536 21.8351 36.9517 20.4502 36.4213 18.7116 36.4213 16.973 36.4213 15.2345 36.9223 13.8495 37.8947 12.4646 38.8966 11.1975 40.1931 9.98934 41.8433L1.56176 33.7693C3.71285 31.0288 6.18809 28.7304 9.0464 26.9329 11.9047 25.106 15.647 24.2219 20.2439 24.2219 24.8408 24.2219 30.2627 25.6953 33.7103 28.6125 37.1285 31.5592 38.8671 35.7141 38.8671 41.0771 38.8671 46.4401 38.4545 45.7034 37.6295 47.7072 36.8044 49.711 35.6257 51.6853 34.1229 53.6006 32.6201 55.516 30.852 57.6082 28.8188 59.8477L21.7467 67.5975 39.6922 67.5975 39.6922 79.7969 3.53605 79.7969Z" fill="#D40511" transform="matrix(1 0 0 1.00486 496 185)"/><path d="M119.106 81.0345C115.865 81.0345 112.682 80.6219 109.559 79.8558 106.435 79.0602 103.754 77.7931 101.485 76.0251L107.26 65.3875C108.527 66.2125 110.207 66.9492 112.329 67.627 114.45 68.2752 116.69 68.6288 119.047 68.6288 121.404 68.6288 123.202 68.1868 124.557 67.3028 125.913 66.4188 126.62 64.916 126.62 62.7649 126.62 60.6138 125.972 59.2583 124.646 58.3743 123.32 57.4903 121.345 57.0188 118.723 57.0188L112.063 57.0188 112.063 47.7956 123.172 37.2464 104.962 37.2464 104.962 25.4596 138.643 25.4596 138.643 36.5687 126.296 47.5893C129.095 47.6483 131.6 48.2671 133.84 49.4752 136.05 50.6834 137.818 52.4219 139.114 54.6909 140.411 56.9599 141.059 59.7593 141.059 63.0596 141.059 66.3599 140.116 70.2495 138.26 72.9016 136.403 75.5831 133.81 77.5868 130.51 78.9718 127.209 80.3273 123.438 81.0345 119.135 81.0345L119.106 81.0345Z" fill="#D40511" transform="matrix(1 0 0 1.00486 496 185)"/><path d="M166.43 81.0345C159.417 81.0345 154.29 78.7066 151.107 74.0803 147.925 69.4539 146.334 63.0596 146.334 54.9266L146.334 50.3298C146.334 42.1969 147.925 35.832 151.107 31.1762 154.29 26.5498 159.387 24.2219 166.43 24.2219 173.473 24.2219 178.541 26.5498 181.694 31.1762 184.847 35.8025 186.438 42.1969 186.438 50.3298L186.438 54.9266C186.438 63.0596 184.876 69.4245 181.694 74.0803 178.541 78.7066 173.443 81.0345 166.43 81.0345ZM166.43 69.1887C168.522 69.1887 169.966 68.0395 170.791 65.7705 171.616 63.5016 172.029 59.7003 172.029 54.3668L172.029 50.7423C172.029 45.3793 171.616 41.5781 170.791 39.368 169.966 37.1875 168.522 36.0677 166.43 36.0677 164.338 36.0677 162.865 37.158 162.01 39.368 161.156 41.5781 160.743 45.3498 160.743 50.7423L160.743 54.3668C160.743 59.7003 161.156 63.5016 162.01 65.7705 162.865 68.0395 164.338 69.1887 166.43 69.1887L166.43 69.1887Z" fill="#D40511" transform="matrix(1 0 0 1.00486 496 185)"/><path d="M77.2922 52.6282C77.2922 50.9781 76.6734 49.3574 75.4063 48.0903L55.4571 28.1411C52.9524 25.6364 48.8859 25.6364 46.3812 28.1411L46.3812 28.1411C43.8765 30.6458 43.8765 34.7122 46.3812 37.2169L61.7925 52.6282 46.3812 68.0395C43.8765 70.5442 43.8765 74.6107 46.3812 77.1154 48.8859 79.6201 52.9524 79.6201 55.4571 77.1154L75.4063 57.1661C75.8777 56.6947 76.2608 56.1643 76.5555 55.6044 77.027 54.6909 77.2922 53.689 77.2922 52.6871L77.2922 52.6282 77.2922 52.6282Z" fill="#D40511" transform="matrix(1 0 0 1.00486 496 185)"/><path d="M89.8157 79.0013C87.8414 79.0013 85.9849 78.2351 84.6 76.8502L65.6232 57.8734C65.0928 57.3429 64.6508 56.7536 64.2972 56.0759 64.2972 56.0759 64.2972 56.0169 64.2677 55.9875 64.0909 55.6633 63.9436 55.3097 63.8257 54.9266 63.7668 54.7498 63.7078 54.573 63.6784 54.3668 63.531 53.7774 63.4721 53.1881 63.4721 52.6282 63.4721 52.0683 63.4721 52.0683 63.531 51.7147 63.6489 50.8307 63.9141 49.9762 64.3266 49.1806 64.3266 49.1806 64.3856 49.0627 64.415 49.0627 64.7392 48.4439 65.1812 47.884 65.6527 47.4125L84.6295 28.4357C87.5172 25.548 92.2025 25.548 95.0608 28.4357 97.9486 31.3235 97.9486 36.0088 95.0608 38.8671L81.2997 52.6282 95.0608 66.3893 95.0608 66.3893C97.9486 69.2771 97.9486 73.9624 95.0608 76.8207 93.6759 78.2056 91.8194 78.9718 89.8451 78.9718L89.8451 78.9718ZM66.5956 54.8972C66.8314 55.3097 67.0965 55.6928 67.4502 56.0464L86.427 75.0232C88.3129 76.9091 91.348 76.9091 93.2339 75.0232 95.1197 73.1373 95.1197 70.1022 93.2339 68.2163L78.5592 53.5417C78.3235 53.306 78.1762 52.9818 78.1762 52.6282 78.1762 52.2746 78.3235 51.9505 78.5592 51.7147L93.2339 37.0401C94.1473 36.1266 94.6483 34.9185 94.6483 33.6514 94.6483 32.3843 94.1473 31.1467 93.2339 30.2627 92.3204 29.3492 91.1122 28.8483 89.8451 28.8483 88.5781 28.8483 87.3404 29.3492 86.4564 30.2627L67.4796 49.2395C67.1555 49.5636 66.8903 49.9172 66.6545 50.3298 66.6545 50.3298 66.5956 50.4182 66.5956 50.4476 66.3599 50.9191 66.1831 51.479 66.0947 52.0683 66.0652 52.3041 66.0652 52.4809 66.0652 52.6577 66.0652 53.0113 66.1241 53.3944 66.2125 53.8069 66.242 53.9248 66.2715 54.0426 66.3304 54.1605 66.4188 54.4257 66.5072 54.6614 66.6251 54.8677L66.6251 54.9266 66.6251 54.9266Z" fill="#D40511" transform="matrix(1 0 0 1.00486 496 185)"/><path d="M1.29655 109.559 13.0834 109.559 12.4351 110.443 1.29655 110.443 1.29655 109.559 1.29655 109.559Z" fill="#CA0511" transform="matrix(1 0 0 1.00486 496 185)"/><path d="M1.29655 107.938 14.2621 107.938 13.6138 108.822 1.29655 108.822 1.29655 107.938 1.29655 107.938Z" fill="#CA0511" transform="matrix(1 0 0 1.00486 496 185)"/><path d="M1.29655 111.179 11.8752 111.179 11.2564 112.063 1.29655 112.063 1.29655 111.179 1.29655 111.179Z" fill="#CA0511" transform="matrix(1 0 0 1.00486 496 185)"/><path d="M88.3129 110.443 76.6144 110.443 77.2332 109.559 88.3129 109.559 88.3129 110.443 88.3129 110.443Z" fill="#CA0511" transform="matrix(1 0 0 1.00486 496 185)"/><path d="M88.3129 112.063 75.4063 112.063 76.0546 111.179 88.3129 111.179 88.3129 112.063 88.3129 112.063Z" fill="#CA0511" transform="matrix(1 0 0 1.00486 496 185)"/><path d="M78.4414 107.938 88.3129 107.938 88.3129 108.822 77.7931 108.822 78.4414 107.938 78.4414 107.938Z" fill="#CA0511" transform="matrix(1 0 0 1.00486 496 185)"/><path d="M12.7003 112.063 18.2991 104.49 25.2238 104.49C25.99 104.49 25.99 104.785 25.6069 105.286 25.2238 105.816 24.5756 106.7 24.1925 107.201 23.9862 107.466 23.6326 107.938 24.8113 107.938L34.0934 107.938C33.3273 108.999 30.8226 112.063 26.3141 112.063L12.7003 112.063 12.7003 112.063 12.7003 112.063Z" fill="#CA0511" transform="matrix(1 0 0 1.00486 496 185)"/><path d="M44.6721 107.938 41.637 112.063 33.6514 112.063C33.6514 112.063 36.6865 107.938 36.6865 107.938L44.6721 107.938Z" fill="#CA0511" transform="matrix(1 0 0 1.00486 496 185)"/><path d="M56.2527 107.938 53.2176 112.063 45.232 112.063C45.232 112.063 48.2671 107.938 48.2671 107.938L56.2527 107.938Z" fill="#CA0511" transform="matrix(1 0 0 1.00486 496 185)"/><path d="M58.8458 107.938C58.8458 107.938 58.2564 108.734 57.9912 109.117 56.9893 110.472 57.8734 112.063 61.1442 112.063L73.9624 112.063 76.9975 107.938 58.8458 107.938Z" fill="#CA0511" transform="matrix(1 0 0 1.00486 496 185)"/><path d="M16.6194 99.7461 13.8495 103.518 28.9956 103.518C29.7618 103.518 29.7618 103.813 29.3787 104.313 28.9956 104.844 28.3768 105.728 27.9643 106.258 27.758 106.524 27.4044 106.995 28.5831 106.995L34.7712 106.995C34.7712 106.995 35.773 105.64 36.5981 104.49 37.7473 102.958 36.6865 99.7166 32.6201 99.7166L16.59 99.7166Z" fill="#CA0511" transform="matrix(1 0 0 1.00486 496 185)"/><path d="M56.9304 106.995 37.3937 106.995 42.7273 99.7461 50.7129 99.7461 47.6483 103.901 51.2138 103.901 54.2784 99.7461 62.264 99.7461 56.9304 106.995 56.9304 106.995Z" fill="#CA0511" transform="matrix(1 0 0 1.00486 496 185)"/><path d="M73.3141 99.7461 67.9806 106.995 59.5235 106.995C59.5235 106.995 64.8571 99.7461 64.8571 99.7461L73.3141 99.7461Z" fill="#CA0511" transform="matrix(1 0 0 1.00486 496 185)"/></g></svg>