<svg width="106" height="106" xmlns="http://www.w3.org/2000/svg" xmlns:xlink="http://www.w3.org/1999/xlink" xml:space="preserve" overflow="hidden"><g transform="translate(-501 -138)"><path d="M554 244C524.775 244 501 220.225 501 191 501 161.775 524.775 138 554 138 583.225 138 607 161.775 607 191 607 220.225 583.225 244 554 244ZM554 156.706C535.088 156.706 519.706 172.088 519.706 191 519.706 209.912 535.088 225.294 554 225.294 572.912 225.294 588.294 209.912 588.294 191 588.294 172.088 572.912 156.706 554 156.706Z" fill="#B3E3F3"/><path d="M512.704 190.526 506.132 190.121 506.4 185.737 507.684 185.818 507.503 188.705 508.85 188.786 509.012 186.199 510.247 186.274 510.085 188.861 511.506 188.949 511.694 185.962 512.978 186.043 512.704 190.526Z"/><path d="M513.009 185.7 510.821 183.655 508.033 184.634 508.333 183.075 510.029 182.557 510.06 182.402 508.682 181.292 508.969 179.801 511.195 181.741 513.982 180.649 513.683 182.208 511.949 182.832 511.918 182.988 513.296 184.21 513.009 185.7Z"/><path d="M514.905 178.205C514.674 178.935 514.281 179.446 513.726 179.752 513.178 180.051 512.529 180.088 511.787 179.851L511.407 179.727C510.677 179.496 510.172 179.109 509.879 178.573 509.586 178.037 509.555 177.432 509.767 176.759 509.985 176.079 510.359 175.624 510.895 175.387 511.432 175.15 512.074 175.15 512.81 175.387L513.402 175.574 512.448 178.548C513.153 178.692 513.608 178.423 513.826 177.744 513.895 177.519 513.932 177.307 513.926 177.102 513.926 176.896 513.888 176.678 513.826 176.459L514.867 176.179C514.973 176.478 515.036 176.802 515.048 177.139 515.061 177.482 515.011 177.837 514.892 178.205ZM510.864 177.139C510.777 177.413 510.802 177.644 510.933 177.831 511.064 178.018 511.288 178.174 511.594 178.292L512.13 176.621C511.806 176.54 511.538 176.534 511.319 176.615 511.101 176.69 510.952 176.865 510.864 177.139Z"/><path d="M516.8 173.441C516.594 173.89 516.326 174.233 515.99 174.476 515.653 174.72 515.279 174.857 514.861 174.882 514.443 174.907 514.007 174.813 513.558 174.607L513.196 174.439C512.747 174.233 512.398 173.965 512.142 173.635 511.887 173.304 511.743 172.93 511.706 172.519 511.669 172.107 511.75 171.683 511.949 171.247 512.093 170.935 512.286 170.66 512.523 170.43 512.76 170.199 513.028 170.031 513.315 169.925L513.851 170.96C513.508 171.097 513.271 171.309 513.134 171.608 512.99 171.914 512.984 172.207 513.109 172.475 513.234 172.743 513.477 172.961 513.832 173.123L514.138 173.267C514.493 173.429 514.817 173.473 515.104 173.385 515.391 173.298 515.609 173.098 515.753 172.787 515.89 172.494 515.902 172.157 515.796 171.783L516.925 171.521C517.143 172.151 517.1 172.793 516.794 173.448Z"/><path d="M518.59 170.031C518.328 170.455 517.979 170.692 517.536 170.729 517.093 170.773 516.601 170.623 516.052 170.28L513.358 168.622 514.119 167.393 516.732 169.008C516.962 169.152 517.181 169.214 517.374 169.201 517.573 169.189 517.736 169.07 517.866 168.858 517.966 168.703 518.01 168.54 518.01 168.372 518.01 168.204 517.966 168.048 517.898 167.904L514.936 166.078 515.697 164.849 520.024 167.518 519.307 168.684 518.552 168.216C518.721 168.503 518.814 168.796 518.839 169.114 518.858 169.426 518.777 169.738 518.59 170.043Z"/><path d="M522.075 165.03C521.658 165.566 521.24 165.853 520.828 165.884 520.41 165.922 519.937 165.728 519.394 165.304L517.923 164.157 517.467 164.737 516.538 164.014 517.006 163.415 516.114 162.723 516.725 161.42 517.866 162.311 518.534 161.451 519.463 162.174 518.808 163.016 520.23 164.126C520.485 164.325 520.697 164.413 520.859 164.382 521.022 164.35 521.177 164.244 521.321 164.051 521.352 164.007 521.389 163.964 521.421 163.914 521.452 163.864 521.483 163.82 521.514 163.77L522.437 164.488C522.393 164.562 522.343 164.65 522.281 164.737 522.219 164.83 522.15 164.924 522.069 165.024Z"/><path d="M519.269 159.53C519.107 159.711 518.92 159.811 518.708 159.842 518.49 159.873 518.297 159.805 518.116 159.643 517.941 159.481 517.854 159.294 517.86 159.075 517.866 158.857 517.954 158.664 518.116 158.483 518.278 158.308 518.465 158.202 518.677 158.171 518.889 158.14 519.089 158.209 519.263 158.371 519.438 158.533 519.525 158.72 519.519 158.938 519.513 159.156 519.425 159.35 519.263 159.53ZM522.948 163.845 519.176 160.428 520.149 159.356 523.921 162.773 522.948 163.845Z"/><path d="M526.39 160.522C525.829 161.033 525.237 161.27 524.619 161.239 524.002 161.208 523.435 160.908 522.923 160.341L522.655 160.048C522.144 159.481 521.901 158.888 521.926 158.271 521.951 157.654 522.25 157.092 522.811 156.581 523.372 156.07 523.965 155.833 524.582 155.864 525.199 155.895 525.767 156.195 526.278 156.762L526.546 157.055C527.057 157.622 527.3 158.215 527.276 158.832 527.251 159.449 526.951 160.011 526.39 160.522ZM525.58 159.63C525.81 159.418 525.922 159.175 525.91 158.901 525.898 158.626 525.748 158.327 525.455 158.003L525.224 157.753C524.931 157.435 524.65 157.255 524.376 157.217 524.102 157.18 523.852 157.261 523.622 157.473 523.391 157.685 523.279 157.928 523.291 158.202 523.304 158.477 523.453 158.776 523.746 159.1L523.977 159.35C524.27 159.668 524.551 159.848 524.825 159.886 525.099 159.923 525.349 159.842 525.58 159.63Z"/><path d="M528.797 158.271 525.91 154.081 527.032 153.308 527.537 154.037C527.5 153.707 527.531 153.401 527.631 153.108 527.731 152.815 527.936 152.566 528.242 152.354 528.66 152.067 529.078 151.986 529.508 152.104 529.932 152.229 530.325 152.541 530.668 153.04L532.507 155.708 531.316 156.531 529.576 154C529.42 153.775 529.246 153.632 529.059 153.563 528.866 153.495 528.666 153.538 528.454 153.682 528.292 153.794 528.173 153.931 528.111 154.087 528.049 154.243 528.018 154.405 528.018 154.573L529.994 157.442 528.803 158.265Z"/><path d="M535.226 154.206 532.538 148.195 536.547 146.399 537.071 147.571 534.434 148.756 534.982 149.984 537.352 148.924 537.857 150.053 535.487 151.113 536.067 152.416 538.798 151.194 539.322 152.366 535.226 154.199Z"/><path d="M541.791 151.693C541.249 151.849 540.762 151.768 540.326 151.443 539.89 151.119 539.565 150.589 539.353 149.86L539.241 149.479C539.029 148.75 539.017 148.132 539.21 147.621 539.397 147.11 539.765 146.779 540.307 146.617 540.937 146.43 541.48 146.592 541.935 147.097L541.174 144.491 542.564 144.086 544.529 150.789 543.219 151.175 542.97 150.333C542.92 150.664 542.795 150.951 542.589 151.194 542.384 151.431 542.122 151.599 541.798 151.699ZM540.738 149.429C540.85 149.816 541.018 150.096 541.23 150.259 541.442 150.421 541.692 150.458 541.985 150.377 542.334 150.271 542.571 150.04 542.695 149.679L542.153 147.833C541.854 147.602 541.529 147.534 541.18 147.64 540.893 147.721 540.7 147.895 540.613 148.145 540.519 148.394 540.532 148.718 540.644 149.105L540.738 149.429Z"/><path d="M547.166 150.321C546.599 150.408 546.125 150.265 545.732 149.891 545.345 149.517 545.096 148.968 544.984 148.238L544.921 147.827C544.809 147.097 544.89 146.499 545.152 146.025 545.414 145.557 545.826 145.277 546.393 145.189 546.723 145.139 547.029 145.171 547.303 145.289 547.584 145.408 547.815 145.588 547.995 145.844L547.877 145.065 549.23 144.859 549.922 149.454C550.165 151.069 549.405 152.017 547.646 152.279 546.929 152.385 546.299 152.298 545.757 152.011L546.193 150.907C546.605 151.088 547.029 151.144 547.472 151.075 548.301 150.951 548.656 150.489 548.532 149.685L548.469 149.28C548.363 149.56 548.195 149.791 547.97 149.972 547.74 150.153 547.472 150.271 547.166 150.315ZM546.412 147.983C546.53 148.787 546.904 149.136 547.528 149.043 547.889 148.987 548.158 148.812 548.326 148.506L548.033 146.574C547.777 146.337 547.472 146.243 547.116 146.299 546.804 146.349 546.592 146.486 546.462 146.717 546.337 146.948 546.299 147.259 546.362 147.646L546.412 147.983Z"/><path d="M553.364 149.884C552.597 149.903 551.986 149.697 551.518 149.28 551.051 148.862 550.814 148.257 550.795 147.478L550.795 147.079C550.77 146.312 550.97 145.707 551.381 145.258 551.793 144.809 552.354 144.578 553.058 144.56 553.769 144.541 554.324 144.753 554.723 145.183 555.122 145.613 555.328 146.218 555.347 146.998L555.359 147.615 552.235 147.683C552.329 148.394 552.734 148.743 553.445 148.725 553.676 148.725 553.894 148.681 554.087 148.612 554.281 148.544 554.474 148.438 554.667 148.313L555.278 149.211C555.029 149.411 554.748 149.573 554.424 149.691 554.1 149.816 553.751 149.878 553.364 149.891ZM553.052 145.719C552.765 145.726 552.553 145.819 552.422 146.006 552.285 146.193 552.21 146.449 552.198 146.786L553.956 146.748C553.931 146.418 553.844 146.162 553.701 145.981 553.557 145.8 553.339 145.713 553.058 145.719Z"/><path d="M554 211.782C544.192 211.782 536.217 203.807 536.217 193.999 536.217 184.191 544.192 176.216 554 176.216 563.808 176.216 571.783 184.197 571.783 193.999 571.783 203.801 563.808 211.782 554 211.782ZM554 180.406C546.505 180.406 540.413 186.504 540.413 193.993 540.413 201.482 546.511 207.58 554 207.58 561.489 207.58 567.587 201.482 567.587 193.993 567.587 186.504 561.489 180.406 554 180.406Z" fill="#D40511"/><path d="M563.498 181.311 567.762 177.047 571.046 180.332 566.783 184.595Z" fill="#D40511"/><path d="M549.947 172.319 558.072 172.319 558.072 178.311 549.947 178.311Z" fill="#D40511"/><path d="M564.45 193.45C564.45 187.677 559.768 183 554 183L554 193.45" fill="#D40511"/></g></svg>