<svg width="106" height="106" xmlns="http://www.w3.org/2000/svg" xmlns:xlink="http://www.w3.org/1999/xlink" xml:space="preserve" overflow="hidden"><g transform="translate(-501 -282)"><path d="M554 388C524.775 388 501 364.225 501 335 501 305.775 524.775 282 554 282 583.225 282 607 305.775 607 335 607 364.225 583.225 388 554 388ZM554 300.706C535.088 300.706 519.706 316.088 519.706 335 519.706 353.912 535.088 369.294 554 369.294 572.912 369.294 588.294 353.912 588.294 335 588.294 316.088 572.912 300.706 554 300.706Z" fill="#C5D3F0"/><path d="M513.022 331.882C512.953 332.824 512.616 333.528 512.018 334.002 511.419 334.476 510.627 334.676 509.648 334.601L509.093 334.557C508.114 334.482 507.36 334.171 506.836 333.616 506.312 333.061 506.088 332.313 506.157 331.371 506.225 330.43 506.562 329.725 507.16 329.251 507.759 328.777 508.551 328.578 509.53 328.652L510.085 328.696C511.07 328.771 511.818 329.083 512.342 329.638 512.866 330.193 513.09 330.941 513.022 331.882ZM511.725 331.789C511.762 331.302 511.625 330.928 511.313 330.66 511.001 330.392 510.534 330.236 509.91 330.193L509.474 330.161C508.85 330.118 508.364 330.199 508.021 330.417 507.672 330.635 507.485 330.984 507.447 331.471 507.41 331.957 507.547 332.331 507.859 332.599 508.171 332.868 508.638 333.023 509.262 333.067L509.698 333.098C510.322 333.148 510.808 333.061 511.151 332.843 511.5 332.624 511.687 332.275 511.725 331.789Z"/><path d="M513.358 327.412 508.133 327.318 508.52 325.809 512.404 326.127 512.442 325.971 508.975 324.419 509.411 322.698 513.196 322.991 513.234 322.835 509.673 321.257 510.047 319.798 514.68 322.211 514.194 324.113 510.552 323.858 510.515 324.013 513.839 325.529 513.358 327.405Z"/><path d="M515.285 320.584 510.621 318.551 511.17 317.298 511.987 317.653C511.781 317.398 511.644 317.117 511.575 316.818 511.506 316.519 511.55 316.194 511.694 315.851 511.893 315.39 512.211 315.097 512.635 314.972 513.059 314.848 513.558 314.91 514.119 315.153L517.093 316.45 516.513 317.778 513.695 316.55C513.446 316.444 513.221 316.406 513.022 316.456 512.822 316.5 512.672 316.643 512.573 316.88 512.492 317.061 512.467 317.236 512.498 317.404 512.529 317.572 512.585 317.728 512.679 317.865L515.871 319.256 515.291 320.584Z"/><path d="M519.338 312.634 514.948 309.685 513.87 311.293 512.791 310.57 515.79 306.106 516.869 306.829 515.79 308.438 520.18 311.387 519.338 312.634Z"/><path d="M522.817 308.188C522.325 308.762 521.77 309.074 521.152 309.117 520.535 309.161 519.937 308.936 519.357 308.438L519.051 308.176C518.471 307.677 518.16 307.122 518.11 306.505 518.06 305.887 518.284 305.295 518.777 304.715 519.269 304.135 519.824 303.83 520.442 303.786 521.059 303.742 521.658 303.967 522.237 304.466L522.537 304.728C523.117 305.226 523.428 305.781 523.478 306.399 523.528 307.016 523.304 307.608 522.811 308.188ZM521.901 307.403C522.106 307.166 522.181 306.91 522.138 306.636 522.094 306.361 521.907 306.087 521.576 305.806L521.321 305.588C520.99 305.308 520.691 305.164 520.417 305.158 520.142 305.158 519.899 305.27 519.693 305.507 519.488 305.744 519.413 306 519.456 306.274 519.5 306.548 519.687 306.823 520.018 307.103L520.273 307.328C520.604 307.608 520.903 307.752 521.177 307.758 521.452 307.758 521.695 307.646 521.894 307.409Z"/><path d="M524.825 305.613 521.576 301.697 522.63 300.824 523.198 301.51C523.129 301.186 523.135 300.874 523.216 300.569 523.297 300.263 523.478 299.995 523.765 299.758 524.301 299.309 524.875 299.278 525.474 299.646 525.417 299.315 525.424 298.991 525.511 298.673 525.592 298.355 525.785 298.075 526.085 297.831 526.465 297.52 526.864 297.407 527.3 297.513 527.731 297.613 528.148 297.912 528.56 298.411L530.58 300.843 529.464 301.766 527.5 299.403C527.325 299.191 527.145 299.06 526.951 299.01 526.758 298.96 526.565 299.01 526.371 299.172 526.222 299.297 526.122 299.44 526.078 299.602 526.028 299.771 526.016 299.933 526.041 300.095L528.261 302.764 527.145 303.686 525.18 301.323C525.006 301.111 524.819 300.986 524.626 300.937 524.426 300.887 524.239 300.937 524.046 301.099 523.902 301.217 523.802 301.361 523.753 301.523 523.703 301.685 523.684 301.847 523.703 302.003L525.935 304.69 524.819 305.613Z"/><path d="M533.43 299.384C532.775 299.764 532.145 299.87 531.553 299.708 530.954 299.546 530.468 299.135 530.081 298.474L529.882 298.131C529.502 297.47 529.383 296.84 529.545 296.241 529.701 295.643 530.106 295.156 530.767 294.776 531.422 294.396 532.052 294.29 532.644 294.452 533.243 294.614 533.729 295.026 534.116 295.686L534.315 296.029C534.696 296.69 534.808 297.32 534.652 297.919 534.496 298.517 534.091 299.004 533.43 299.384ZM532.825 298.336C533.093 298.181 533.255 297.969 533.299 297.694 533.342 297.42 533.261 297.096 533.043 296.722L532.875 296.428C532.657 296.054 532.42 295.817 532.164 295.724 531.902 295.63 531.64 295.662 531.372 295.817 531.104 295.973 530.942 296.192 530.898 296.46 530.855 296.734 530.936 297.058 531.154 297.432L531.322 297.725C531.54 298.1 531.777 298.336 532.033 298.43 532.289 298.524 532.557 298.499 532.825 298.336Z"/><path d="M536.298 297.713 534.265 293.049 535.519 292.5 536.024 293.66C535.999 293.423 536.005 293.186 536.036 292.955 536.067 292.718 536.148 292.506 536.273 292.307 536.404 292.107 536.597 291.952 536.865 291.833 536.922 291.808 536.971 291.789 537.021 291.771 537.071 291.752 537.127 291.74 537.202 291.721L537.738 292.949C537.688 292.962 537.632 292.98 537.57 293.005 537.508 293.03 537.452 293.049 537.395 293.074 537.059 293.217 536.816 293.404 536.653 293.623 536.498 293.841 536.398 294.053 536.354 294.24L537.614 297.133 536.286 297.713Z"/><path d="M539.827 296.235 538.237 291.403 539.534 290.979 539.927 292.182C539.927 291.945 539.952 291.708 540.008 291.478 540.058 291.247 540.164 291.041 540.307 290.854 540.451 290.667 540.663 290.53 540.943 290.443 540.999 290.424 541.056 290.411 541.099 290.399 541.149 290.386 541.211 290.374 541.28 290.368L541.698 291.64C541.648 291.652 541.586 291.665 541.529 291.677 541.467 291.696 541.411 291.715 541.355 291.733 541.006 291.846 540.744 292.008 540.569 292.213 540.395 292.419 540.276 292.612 540.214 292.8L541.199 295.792 539.827 296.241Z"/><path d="M545.626 294.732C544.884 294.888 544.254 294.795 543.737 294.452 543.219 294.109 542.889 293.566 542.733 292.818L542.652 292.425C542.496 291.677 542.589 291.041 542.926 290.524 543.263 290.006 543.805 289.669 544.547 289.514 545.289 289.358 545.919 289.451 546.437 289.794 546.954 290.137 547.285 290.68 547.44 291.428L547.522 291.821C547.677 292.569 547.584 293.205 547.247 293.722 546.91 294.24 546.368 294.577 545.626 294.732ZM545.377 293.554C545.682 293.492 545.9 293.336 546.031 293.093 546.162 292.849 546.181 292.513 546.094 292.095L546.025 291.764C545.938 291.34 545.788 291.041 545.57 290.873 545.352 290.698 545.096 290.648 544.784 290.711 544.472 290.773 544.26 290.929 544.13 291.172 543.999 291.415 543.98 291.752 544.067 292.17L544.136 292.5C544.223 292.924 544.373 293.224 544.591 293.392 544.809 293.56 545.065 293.623 545.37 293.554Z"/><path d="M549.348 293.972 547.833 288.971 549.386 288.871 550.271 292.662 550.433 292.65 550.845 288.878 552.616 288.765 553.495 292.457 553.657 292.444 554.062 288.572 555.565 288.478 554.686 293.629 552.722 293.754 551.849 290.212 551.687 290.224 551.263 293.847 549.33 293.966Z"/><path d="M568.404 318.614 551.587 318.614C550.988 318.614 550.683 319.343 551.107 319.767L555.945 324.606C556.126 324.787 556.376 324.899 556.631 324.899L561.788 324.899C562.349 324.899 562.798 325.348 562.798 325.909L562.798 325.909 562.798 331.066C562.798 331.327 562.904 331.571 563.091 331.751L567.93 336.59C568.354 337.014 569.083 336.715 569.083 336.11L569.083 319.293C569.083 318.919 568.778 318.62 568.404 318.62Z" fill="#D40511"/><path d="M557.367 329.656 530.986 329.656C530.387 329.656 530.081 330.386 530.505 330.81L535.843 336.147C536.024 336.328 536.273 336.44 536.529 336.44L550.24 336.44C550.801 336.44 551.25 336.889 551.25 337.45L551.25 337.45 551.25 351.156C551.25 351.418 551.356 351.661 551.543 351.842L556.881 357.179C557.305 357.603 558.034 357.304 558.034 356.699L558.034 330.33C558.034 329.956 557.735 329.656 557.361 329.656Z" fill="#D40511"/></g></svg>